<svg width="38" height="33" viewBox="0 0 38 33" fill="none" xmlns="http://www.w3.org/2000/svg">
<path d="M9.44416 1.8999V9.28115L10.9379 7.8374C11.5254 7.25615 12.4754 7.25615 13.0067 7.8374C13.6442 8.4249 13.6442 9.3749 13.0067 9.90615L9.00666 13.9062C8.47541 14.5437 7.52541 14.5437 6.93791 13.9062L2.93978 9.90615C2.35353 9.3749 2.35353 8.4249 2.93978 7.8374C3.52541 7.25615 4.47541 7.25615 5.06103 7.8374L6.44416 9.28115V1.8999C6.44416 1.07178 7.16916 0.399902 7.94416 0.399902C8.83166 0.399902 9.44416 1.07178 9.44416 1.8999ZM21.4442 12.8999C21.4442 14.2812 20.3817 15.3999 18.9442 15.3999C17.6192 15.3999 16.4442 14.2812 16.4442 12.8999C16.4442 11.5187 17.6192 10.3999 18.9442 10.3999C20.3817 10.3999 21.4442 11.5187 21.4442 12.8999ZM10.4442 18.8999C10.4442 20.2812 9.38166 21.3999 7.94416 21.3999C6.61916 21.3999 5.44416 20.2812 5.44416 18.8999C5.44416 17.5187 6.61916 16.3999 7.94416 16.3999C9.38166 16.3999 10.4442 17.5187 10.4442 18.8999ZM27.4442 18.8999C27.4442 17.5187 28.6192 16.3999 29.9442 16.3999C31.3817 16.3999 32.4442 17.5187 32.4442 18.8999C32.4442 20.2812 31.3817 21.3999 29.9442 21.3999C28.6192 21.3999 27.4442 20.2812 27.4442 18.8999ZM11.4442 30.3999C11.4442 31.5062 10.6067 32.3999 9.44416 32.3999H6.44416C5.39416 32.3999 4.44416 31.5062 4.44416 30.3999V27.9937L2.82103 31.1124C2.42791 31.8374 1.51853 32.1124 0.789158 31.7187C0.0597826 31.3249 -0.213342 30.4187 0.179783 29.6874L2.54666 25.2937C3.50603 23.5124 5.36916 22.3999 7.38791 22.3999H8.61291C9.63166 22.3999 10.6067 22.6812 11.4504 23.1874L13.5442 19.2937C14.5067 17.5124 16.3692 16.3437 18.3879 16.3437H19.6129C21.6317 16.3437 23.4942 17.5124 24.4567 19.2937L26.5504 23.1874C27.3942 22.6812 28.3692 22.3999 29.3879 22.3999H30.6129C32.6317 22.3999 34.4942 23.5124 35.4567 25.2937L37.8192 29.6874C38.2129 30.4187 37.9379 31.3249 37.2129 31.7187C36.4817 32.1124 35.5692 31.8374 35.1817 31.1124L33.4442 27.9937V30.3999C33.4442 31.5062 32.6067 32.3999 31.4442 32.3999H28.4442C27.3942 32.3999 26.4442 31.5062 26.4442 30.3999V27.9937L24.8192 31.1124C24.4254 31.8374 23.5192 32.1124 22.7879 31.7187C22.0567 31.3249 21.7879 30.4187 22.1817 29.6874L24.4504 25.4687C24.3442 25.3687 24.2504 25.2499 24.1817 25.1124L22.4442 21.9937V25.3999C22.4442 26.5062 21.6067 27.3999 20.4442 27.3999H17.4442C16.3942 27.3999 15.4442 26.5062 15.4442 25.3999V21.9937L13.8192 25.1124C13.6942 25.2499 13.6567 25.3687 13.5504 25.4687L15.8192 29.6874C16.2129 30.4187 15.9379 31.3249 15.2129 31.7187C14.4817 32.1124 13.5692 31.8374 13.1817 31.1124L11.4442 27.9937V30.3999ZM24.9379 9.90615C24.3567 9.3749 24.3567 8.4249 24.9379 7.8374C25.5254 7.25615 26.4754 7.25615 27.0067 7.8374L28.4442 9.28115V1.8999C28.4442 1.07178 29.1692 0.399902 29.9442 0.399902C30.8317 0.399902 31.4442 1.07178 31.4442 1.8999V9.28115L32.9379 7.8374C33.5254 7.25615 34.4754 7.25615 35.0067 7.8374C35.6442 8.4249 35.6442 9.3749 35.0067 9.90615L31.0067 13.9062C30.4754 14.5437 29.5254 14.5437 28.9379 13.9062L24.9379 9.90615Z" fill="#FDC966"/>
</svg>
