<svg width="32" height="33" viewBox="0 0 32 33" fill="none" xmlns="http://www.w3.org/2000/svg">
<path d="M17.5 9.48115V7.3999H18.5C19.3313 7.3999 20 6.73115 20 5.8999C20 5.06865 19.3313 4.3999 18.5 4.3999H13.4438C12.6688 4.3999 12 5.07178 12 5.84365C12 6.61553 12.6688 7.3999 13.4438 7.3999H14.5V9.4824C7.475 10.2312 2 16.1749 2 23.3999H30C30 16.1749 24.525 10.2312 17.5 9.48115ZM30.5 25.3999H1.5C0.671875 25.3999 0 26.0687 0 26.8437C0 27.7312 0.671875 28.3999 1.44375 28.3999H30.4438C31.2719 28.3999 31.9438 27.728 31.9438 26.9562C32 26.0687 31.3313 25.3999 30.5 25.3999Z" fill="#FDC966"/>
</svg>
