<svg width="24" height="33" viewBox="0 0 24 33" fill="none" xmlns="http://www.w3.org/2000/svg">
<g clip-path="url(#clip0_425_19)">
<path d="M1.1875 17.4312L3.72625 18.5562C3.98625 18.6687 4.26563 18.7312 4.545 18.7312C4.795 18.7312 5.04506 18.684 5.28125 18.5881L6.07812 18.2678C6.64844 18.0412 7.07812 17.5728 7.25 16.9865L7.825 15.0749C7.9375 14.6437 8.21875 14.2874 8.61875 14.0937L10 13.3999V16.5487C10 17.6812 9.35 18.7187 8.3375 19.2249L4.76562 21.0187C3.07 21.8687 2 23.5937 2 25.4937V26.3999H21.9937L21.9911 14.3999C21.9911 7.83115 16.6268 2.3999 10.0036 2.3999H0.75C0.335938 2.3999 0 2.73615 0 3.1499C0 3.31396 0.0390625 3.47803 0.109375 3.62646L1 5.3999L0.4375 5.9624C0.15625 6.24365 0 6.62615 0 7.0249V15.5999C0 16.3937 0.46875 17.1124 1.1875 17.4312ZM3.25 8.3999C3.9375 8.3999 4.5 8.9624 4.5 9.6499C4.5 10.3374 3.9375 10.8999 3.25 10.8999C2.5625 10.8999 2 10.3374 2 9.6499C2 8.9624 2.5625 8.3999 3.25 8.3999ZM21 28.3999H2.94375C1.34312 28.3999 0 29.7437 0 31.3437C0 31.9499 0.447688 32.3999 1 32.3999H23C23.5523 32.3999 24 31.9522 24 31.3999C24 29.7437 22.6562 28.3999 21 28.3999Z" fill="#FDC966"/>
</g>
<defs>
<clipPath id="clip0_425_19">
<rect width="24" height="32" fill="white" transform="translate(0 0.399902)"/>
</clipPath>
</defs>
</svg>
