<svg width="32" height="33" viewBox="0 0 32 33" fill="none" xmlns="http://www.w3.org/2000/svg">
<g clip-path="url(#clip0_425_31)">
<path d="M29.1941 15.4687L21.9441 18.3999H27.8404C27.3585 19.328 26.8223 20.2299 26.2235 21.088L17.9423 24.3999H23.2954C19.5866 27.6943 14.2891 29.4212 6.76414 27.7012L2.50602 31.9593C1.91977 32.5455 0.971016 32.5452 0.384766 31.9593C-0.201172 31.3733 -0.201172 30.4243 0.384766 29.838L16.2223 14.0005C16.5251 13.6083 16.5125 13.0512 16.1527 12.6912C15.7621 12.3005 15.129 12.3005 14.739 12.6912L4.20145 23.2287C1.53539 4.02491 22.9316 0.907284 29.9316 0.405196C31.111 0.320571 32.0823 1.29207 31.9973 2.47082C31.7941 5.30803 31.1566 10.5124 29.1941 15.4687Z" fill="#FDC966"/>
</g>
<defs>
<clipPath id="clip0_425_31">
<rect width="32" height="32" fill="white" transform="translate(0 0.399902)"/>
</clipPath>
</defs>
</svg>
