<svg width="36" height="33" viewBox="0 0 36 33" fill="none" xmlns="http://www.w3.org/2000/svg">
<g clip-path="url(#clip0_425_25)">
<path d="M2.58596 0.985652C3.36721 0.204652 4.63346 0.204652 5.41471 0.985652L10.5003 6.07115L13.8191 2.75365C15.5753 0.99609 18.4253 0.99609 20.1816 2.75365L29.6441 12.2187C31.4066 13.9749 31.4066 16.8249 29.6441 18.5812L17.7441 30.4874C15.4003 32.8312 11.6003 32.8312 9.25659 30.4874L1.91471 23.1437C-0.428602 20.7999 -0.428602 16.9999 1.91471 14.6562L7.66909 8.84365L2.58596 3.81428C1.80534 3.03303 1.80534 1.76678 2.58596 0.985652ZM13.5878 14.8124L10.5003 11.7312L4.74284 17.4874C4.48096 17.7499 4.30659 18.0624 4.22034 18.3999H24.1691L26.8191 15.7562C27.0128 15.5562 27.0128 15.2437 26.8191 15.0437L17.3566 5.58178C17.1566 5.38678 16.8441 5.38678 16.6441 5.58178L13.3316 8.8999L16.4128 11.9874C17.1941 12.7687 17.1941 14.0312 16.4128 14.8124C15.6316 15.5937 14.3691 15.5937 13.5878 14.8124ZM28.0003 28.3999C28.0003 26.8249 30.0378 23.4249 31.2003 21.6062C31.5816 21.0187 32.4191 21.0187 32.8003 21.6062C33.9628 23.4249 36.0003 26.8249 36.0003 28.3999C36.0003 30.6062 34.2066 32.3999 32.0003 32.3999C29.7941 32.3999 28.0003 30.6062 28.0003 28.3999Z" fill="#FDC966"/>
</g>
<defs>
<clipPath id="clip0_425_25">
<rect width="36" height="32" fill="white" transform="translate(0 0.399902)"/>
</clipPath>
</defs>
</svg>
