<svg width="40" height="33" viewBox="0 0 40 33" fill="none" xmlns="http://www.w3.org/2000/svg">
<g clip-path="url(#clip0_425_29)">
<path d="M3 8.8999C3 9.73115 2.32812 10.3999 1.5 10.3999C0.671875 10.3999 0 9.73115 0 8.8999V2.3999C0 1.29553 0.895625 0.399902 2 0.399902H8.5C9.33125 0.399902 10 1.07178 10 1.8999C10 2.72803 9.33125 3.3999 8.5 3.3999H3V8.8999ZM7.9875 11.3999C7.9875 9.74365 9.33125 8.3999 10.9875 8.3999C12.6438 8.3999 13.9875 9.74365 13.9875 11.3999C13.9875 13.0562 12.6438 14.3999 10.9875 14.3999C9.33125 14.3999 7.9875 13.0562 7.9875 11.3999ZM13.6687 16.3999C14.2375 16.3999 14.7812 16.5437 15.25 16.7999C13.225 17.5437 11.675 19.2687 11.175 21.3999H7.66875C6.74375 21.3999 6 20.6562 6 19.7312C6 17.8937 7.49375 16.3999 9.33125 16.3999H13.6687ZM32.3312 21.3999H28.825C28.325 19.2687 26.775 17.5437 24.6938 16.7999C25.2188 16.5437 25.7625 16.3999 26.3312 16.3999H30.6688C32.5063 16.3999 34 17.8937 34 19.7312C34 20.6562 33.2562 21.3999 32.3312 21.3999ZM27 22.8999C27 23.7312 26.3313 24.3999 25.5 24.3999H14.5C13.6687 24.3999 13 23.7312 13 22.8999C13 22.3749 13.0875 21.8687 13.2563 21.3999C13.7938 19.8812 15.0688 18.7374 16.6938 18.4062C16.9938 18.4187 17.2438 18.3999 17.5 18.3999H22.5C22.7562 18.3999 23.0062 18.4187 23.25 18.4062C24.875 18.7374 26.2062 19.8812 26.7437 21.3999C26.9125 21.8687 27 22.3749 27 22.8999ZM26 11.3999C26 9.74365 27.3438 8.3999 29 8.3999C30.6562 8.3999 32 9.74365 32 11.3999C32 13.0562 30.6562 14.3999 29 14.3999C27.3438 14.3999 26 13.0562 26 11.3999ZM24 12.3999C24 14.6062 22.2062 16.3999 20 16.3999C17.7938 16.3999 16 14.6062 16 12.3999C16 10.1937 17.7938 8.3999 20 8.3999C22.2062 8.3999 24 10.1937 24 12.3999ZM30 1.8999C30 1.07178 30.6687 0.399902 31.5 0.399902H38C39.1063 0.399902 40 1.29553 40 2.3999V8.8999C40 9.73115 39.3313 10.3999 38.5 10.3999C37.6687 10.3999 37 9.73115 37 8.8999V3.3999H31.5C30.6687 3.3999 30 2.72803 30 1.8999ZM3 29.3999H8.5C9.33125 29.3999 10 30.0687 10 30.8999C10 31.7312 9.33125 32.3999 8.5 32.3999H2C0.895625 32.3999 0 31.5062 0 30.3999V23.8999C0 23.0687 0.671875 22.3999 1.5 22.3999C2.32812 22.3999 3 23.0687 3 23.8999V29.3999ZM31.5 29.3999H37V23.8999C37 23.0687 37.6687 22.3999 38.5 22.3999C39.3313 22.3999 40 23.0687 40 23.8999V30.3999C40 31.5062 39.1063 32.3999 38 32.3999H31.5C30.6687 32.3999 30 31.7312 30 30.8999C30 30.0687 30.6687 29.3999 31.5 29.3999Z" fill="#FDC966"/>
</g>
<defs>
<clipPath id="clip0_425_29">
<rect width="40" height="32" fill="white" transform="translate(0 0.399902)"/>
</clipPath>
</defs>
</svg>
