<svg width="40" height="33" viewBox="0 0 40 33" fill="none" xmlns="http://www.w3.org/2000/svg">
<path d="M8 6.3999H32V22.3999H36V5.3999C36 3.75178 34.65 2.3999 33 2.3999H7C5.35187 2.3999 4 3.75178 4 5.3999V22.3999H8V6.3999ZM39 24.3999H1C0.453125 24.3999 0 24.8562 0 25.3999V26.3999C0 28.603 1.79688 30.3999 4 30.3999H36C38.2031 30.3999 40 28.603 40 26.3999V25.3999C40 24.8562 39.55 24.3999 39 24.3999ZM22.8687 18.2874C23.1125 18.5312 23.4313 18.6499 23.75 18.6499C24.0687 18.6499 24.3894 18.5288 24.6338 18.2847L27.6338 15.2847C28.122 14.7963 28.122 14.0034 27.6338 13.5153L24.6338 10.5153C24.1455 10.027 23.3544 10.027 22.8662 10.5153C22.378 11.0036 22.378 11.7965 22.8662 12.2847L24.9825 14.3997L22.8662 16.5147C22.375 17.0062 22.375 17.7999 22.8687 18.2874ZM17.1313 10.5187C16.643 10.0303 15.8519 10.0303 15.3638 10.5187L12.3638 13.5187C11.8755 14.007 11.8755 14.7999 12.3638 15.288L15.3638 18.288C15.6125 18.5312 15.9313 18.6499 16.25 18.6499C16.5687 18.6499 16.8894 18.5288 17.1338 18.2847C17.622 17.7963 17.622 17.0034 17.1338 16.5153L15.0188 14.3999L17.135 12.2849C17.5688 11.7999 17.5688 11.0062 17.1313 10.5187Z" fill="#FDC966"/>
</svg>
