<svg width="36" height="33" viewBox="0 0 36 33" fill="none" xmlns="http://www.w3.org/2000/svg">
<g clip-path="url(#clip0_425_33)">
<path d="M8 10.3999C8 9.29365 8.89375 8.3999 10 8.3999H18C19.1063 8.3999 20 9.29365 20 10.3999V16.3999C20 17.5062 19.1063 18.3999 18 18.3999H10C8.89375 18.3999 8 17.5062 8 16.3999V10.3999ZM18 20.3999C20.2062 20.3999 22 18.6062 22 16.3999V14.3999H26C27.1063 14.3999 28 15.2937 28 16.3999V22.3999C28 23.5062 27.1063 24.3999 26 24.3999H18C16.8937 24.3999 16 23.5062 16 22.3999V20.3999H18ZM2 7.8624C0.804375 7.1749 0 5.88053 0 4.3999C0 2.19053 1.79063 0.399902 4 0.399902C5.48063 0.399902 6.775 1.20428 7.4625 2.3999H28.5375C29.225 1.20428 30.5187 0.399902 32 0.399902C34.2062 0.399902 36 2.19053 36 4.3999C36 5.88053 35.1938 7.1749 34 7.8624V24.9374C35.1938 25.6249 36 26.9187 36 28.3999C36 30.6062 34.2062 32.3999 32 32.3999C30.5187 32.3999 29.225 31.5937 28.5375 30.3999H7.4625C6.775 31.5937 5.48063 32.3999 4 32.3999C1.79063 32.3999 0 30.6062 0 28.3999C0 26.9187 0.804375 25.6249 2 24.9374V7.8624ZM7.4625 6.3999C7.1125 7.00615 6.60625 7.5124 6 7.8624V24.9374C6.60625 25.2874 7.1125 25.7937 7.4625 26.3999H28.5375C28.8875 25.7937 29.3938 25.2874 30 24.9374V7.8624C29.3938 7.5124 28.8875 7.00615 28.5375 6.3999H7.4625Z" fill="#FDC966"/>
</g>
<defs>
<clipPath id="clip0_425_33">
<rect width="36" height="32" fill="white" transform="translate(0 0.399902)"/>
</clipPath>
</defs>
</svg>
