<svg width="32" height="33" viewBox="0 0 32 33" fill="none" xmlns="http://www.w3.org/2000/svg">
<g clip-path="url(#clip0_425_17)">
<path d="M32 16.3437C32 16.4562 31.9438 16.5124 31.9438 16.5687C31.975 18.8499 29.9 20.3437 27.6187 20.3437H21.5C19.8438 20.3437 18.5 21.7437 18.5 23.3999C18.5 23.6124 18.525 23.8187 18.5625 24.0187C18.7 24.6562 18.9687 25.2187 19.2437 25.8874C19.6187 26.7499 20 27.6062 20 28.5124C20 30.5062 18.65 32.3062 16.6625 32.3874C16.4438 32.3937 16.2188 32.3999 16 32.3999C7.1625 32.3999 0 25.2374 0 16.3999C0 7.5624 7.1625 0.399902 16 0.399902C24.8375 0.399902 32 7.5624 32 16.3999V16.3437ZM6 16.3437C4.89562 16.3437 4 17.2937 4 18.3437C4 19.5062 4.89562 20.3437 6 20.3437C7.10625 20.3437 8 19.5062 8 18.3437C8 17.2937 7.10625 16.3437 6 16.3437ZM8 12.3437C9.10625 12.3437 10 11.5062 10 10.3437C10 9.29365 9.10625 8.34365 8 8.34365C6.89375 8.34365 6 9.29365 6 10.3437C6 11.5062 6.89375 12.3437 8 12.3437ZM16 4.34365C14.8937 4.34365 14 5.29553 14 6.34365C14 7.50615 14.8937 8.34365 16 8.34365C17.1063 8.34365 18 7.50615 18 6.34365C18 5.29553 17.1063 4.34365 16 4.34365ZM24 12.3437C25.1063 12.3437 26 11.5062 26 10.3437C26 9.29365 25.1063 8.34365 24 8.34365C22.8937 8.34365 22 9.29365 22 10.3437C22 11.5062 22.8937 12.3437 24 12.3437Z" fill="#FDC966"/>
</g>
<defs>
<clipPath id="clip0_425_17">
<rect width="32" height="32" fill="white" transform="translate(0 0.399902)"/>
</clipPath>
</defs>
</svg>
