<svg width="40" height="33" viewBox="0 0 40 33" fill="none" xmlns="http://www.w3.org/2000/svg">
<g clip-path="url(#clip0_425_21)">
<path d="M25.3813 4.25317C25.9625 4.34317 26.2125 5.06192 25.7875 5.48817L23.4125 7.78129L23.975 11.0313C24.0063 11.6188 23.4563 12.0688 22.9188 11.8L20.0125 10.2688L17.0812 11.8188C16.5437 12.0875 15.9375 11.6375 16.025 11.0563L16.5875 7.80005L14.2125 5.48817C13.7875 5.06192 14.0375 4.34317 14.6187 4.25317L17.8875 3.78192L19.3625 0.795795C19.6312 0.256982 20.3938 0.27942 20.6375 0.795795L22.1125 3.78192L25.3813 4.25317ZM24 16.4C25.1063 16.4 26 17.2938 26 18.4V30.4C26 31.5063 25.1063 32.4 24 32.4H16C14.8937 32.4 14 31.5063 14 30.4V18.4C14 17.2938 14.8937 16.4 16 16.4H24ZM10 20.4C11.1063 20.4 12 21.2938 12 22.4V30.4C12 31.5063 11.1063 32.4 10 32.4H2C0.895625 32.4 0 31.5063 0 30.4V22.4C0 21.2938 0.895625 20.4 2 20.4H10ZM28 26.4C28 25.2938 28.8937 24.4 30 24.4H38C39.1063 24.4 40 25.2938 40 26.4V30.4C40 31.5063 39.1063 32.4 38 32.4H30C28.8937 32.4 28 31.5063 28 30.4V26.4Z" fill="#FDC966"/>
</g>
<defs>
<clipPath id="clip0_425_21">
<rect width="40" height="32" fill="white" transform="translate(0 0.399902)"/>
</clipPath>
</defs>
</svg>
