<svg width="64" height="64" viewBox="0 0 64 64" fill="none" xmlns="http://www.w3.org/2000/svg">
<path d="M6.72756 38.8681L14.9395 42.7579L10.3031 49.4549L2.20782 43.3835C1.11921 42.567 1.14611 40.9253 2.26089 40.145L3.72291 39.1216C4.60615 38.5033 5.75322 38.4065 6.72756 38.8681Z" fill="url(#paint0_linear_221_348)"/>
<path d="M24.8707 57.2403L21.4671 48.8153L14.5108 53.0526L20.0991 61.4887C20.8506 62.6231 22.491 62.6921 23.3351 61.6248L24.4422 60.2251C25.111 59.3794 25.2746 58.24 24.8707 57.2403Z" fill="url(#paint1_linear_221_348)"/>
<path d="M62.3439 36.0458L57.6108 41.2731L54.2302 33.2545L57.0051 30.4455C57.8286 29.6119 59.189 29.6616 59.9495 30.553L62.3829 33.4053C63.0354 34.1702 63.0187 35.3005 62.3439 36.0458Z" fill="url(#paint2_linear_221_348)"/>
<path d="M26.2848 1.19724L21.1213 6.00003L29.1846 9.27277L31.9561 6.46047C32.7786 5.62591 32.7107 4.26627 31.8092 3.51781L28.9245 1.12288C28.1509 0.480693 27.0209 0.512528 26.2848 1.19724Z" fill="url(#paint3_linear_221_348)"/>
<path d="M54.4914 56.6838L37.7651 34.8402L50.4839 22.8201L60.4242 46.3125C61.5192 48.9005 61.1761 51.8732 59.5203 54.1437L57.6953 56.6463C56.908 57.7259 55.3038 57.7447 54.4914 56.6838Z" fill="url(#paint4_linear_221_348)"/>
<path d="M45.8487 6.69649C27.9189 23.5229 15.9126 38.6724 9.67526 48.4993C6.69358 53.1969 10.2226 56.7863 14.9055 53.7816C30.4557 43.8043 52.8803 22.438 56.1518 19.5754C60.273 15.9693 62.3336 4.12073 59.7579 3.09042C57.1821 2.06011 51.0002 2.57526 45.8487 6.69649Z" fill="url(#paint5_linear_221_348)"/>
<path d="M5.75254 9.32711L27.8184 25.7591L39.6669 12.8803L16.0434 3.25585C13.4409 2.19561 10.4731 2.57853 8.22497 4.26459L5.74707 6.12302C4.67813 6.92473 4.68087 8.52905 5.75254 9.32711Z" fill="url(#paint6_linear_221_348)"/>
<path d="M49.97 8.24306C51.6871 8.50724 55.1215 9.9074 55.1215 13.3946" stroke="url(#paint7_linear_221_348)" stroke-width="2" stroke-linecap="round"/>
<path d="M14.4244 48.4236L6.69706 56.6661" stroke="url(#paint8_linear_221_348)" stroke-width="4" stroke-linecap="round"/>
<defs>
<linearGradient id="paint0_linear_221_348" x1="13.0913" y1="39.2866" x2="4.85251" y2="51.9712" gradientUnits="userSpaceOnUse">
<stop stop-color="#73A3F2"/>
<stop offset="1" stop-color="#5488DF"/>
</linearGradient>
<linearGradient id="paint1_linear_221_348" x1="24.8245" y1="50.863" x2="11.6805" y2="58.3469" gradientUnits="userSpaceOnUse">
<stop stop-color="#73A3F2"/>
<stop offset="1" stop-color="#5488DF"/>
</linearGradient>
<linearGradient id="paint2_linear_221_348" x1="61.3034" y1="32.4572" x2="55.1215" y2="38.1239" gradientUnits="userSpaceOnUse">
<stop stop-color="#EC407A"/>
<stop offset="1" stop-color="#BD2E5F"/>
</linearGradient>
<linearGradient id="paint3_linear_221_348" x1="29.8789" y1="2.06061" x2="24.2122" y2="8.24246" gradientUnits="userSpaceOnUse">
<stop stop-color="#EC407A"/>
<stop offset="1" stop-color="#BD2E5F"/>
</linearGradient>
<linearGradient id="paint4_linear_221_348" x1="59.3872" y1="27.1623" x2="30.6526" y2="44.1972" gradientUnits="userSpaceOnUse">
<stop stop-color="#73A3F2"/>
<stop offset="1" stop-color="#5488DF"/>
</linearGradient>
<linearGradient id="paint5_linear_221_348" x1="59.2427" y1="3.09048" x2="0.442341" y2="44.1811" gradientUnits="userSpaceOnUse">
<stop stop-color="#C8DCFF"/>
<stop offset="1" stop-color="#A2BFF1"/>
</linearGradient>
<linearGradient id="paint6_linear_221_348" x1="35.2058" y1="4.03598" x2="18.5575" y2="32.9964" gradientUnits="userSpaceOnUse">
<stop stop-color="#73A3F2"/>
<stop offset="1" stop-color="#5488DF"/>
</linearGradient>
<linearGradient id="paint7_linear_221_348" x1="53.576" y1="8.75821" x2="52.0306" y2="10.8188" gradientUnits="userSpaceOnUse">
<stop stop-color="#769DDF"/>
<stop offset="1" stop-color="#4D6DA4"/>
</linearGradient>
<linearGradient id="paint8_linear_221_348" x1="12.1756" y1="50.3699" x2="7.31888" y2="54.197" gradientUnits="userSpaceOnUse">
<stop stop-color="#F7578D"/>
<stop offset="1" stop-color="#D84274"/>
</linearGradient>
</defs>
</svg>
