<svg width="184" height="184" viewBox="0 0 184 184" fill="none" xmlns="http://www.w3.org/2000/svg">
<path d="M142.229 14.1555V171.918C142.229 173.023 141.334 173.918 140.229 173.918H17.9981C16.8935 173.918 15.9981 173.023 15.9981 171.918V38.0375L42.1149 12.1555H140.229C141.334 12.1555 142.229 13.0509 142.229 14.1555Z" fill="url(#paint0_linear_231_665)"/>
<path d="M15.9981 37.4017L42.1793 12.1555V37.4017H15.9981Z" fill="url(#paint1_linear_231_665)"/>
<path d="M119.788 91.6343H145.969V99.53C145.969 103.948 142.387 107.53 137.969 107.53H127.788C123.37 107.53 119.788 103.948 119.788 99.53V91.6343Z" fill="url(#paint2_linear_231_665)"/>
<path d="M132.411 0C112.013 0 95.4769 16.5894 95.4769 37.0534C95.4769 51.206 103.386 63.5054 115.012 69.7459C115.682 70.1058 116.117 70.7968 116.117 71.5578V80.4138H148.706L148.706 71.5578C148.706 70.7968 149.14 70.1058 149.81 69.7459C161.436 63.5054 169.345 51.206 169.345 37.0534C169.345 16.5894 152.809 0 132.411 0Z" fill="url(#paint3_linear_231_665)"/>
<path d="M148.774 42.5444C148.774 38.6714 145.635 35.5316 141.762 35.5316V35.5316C137.888 35.5316 134.749 38.6714 134.749 42.5444V49.5573H141.762C145.635 49.5573 148.774 46.4175 148.774 42.5444V42.5444Z" stroke="white" stroke-width="3"/>
<path d="M115.113 42.5444C115.113 38.6714 118.253 35.5316 122.126 35.5316V35.5316C125.999 35.5316 129.138 38.6714 129.138 42.5444V49.5573H122.126C118.253 49.5573 115.113 46.4175 115.113 42.5444V42.5444Z" stroke="white" stroke-width="3"/>
<path d="M130.638 45.8171C130.638 44.9887 129.967 44.3171 129.138 44.3171C128.31 44.3171 127.638 44.9887 127.638 45.8171H130.638ZM127.638 80.4947V81.9947H130.638V80.4947H127.638ZM127.638 45.8171V80.4947H130.638V45.8171H127.638Z" fill="white"/>
<path d="M133.249 45.8171C133.249 44.9887 133.92 44.3171 134.749 44.3171C135.577 44.3171 136.249 44.9887 136.249 45.8171H133.249ZM136.249 80.4947V81.9947H133.249V80.4947H136.249ZM136.249 45.8171V80.4947H133.249V45.8171H136.249Z" fill="white"/>
<path d="M138.254 49.5574H126.333" stroke="white" stroke-width="3" stroke-linecap="round"/>
<path d="M115.113 79.4788H149.709V91.5044C149.709 92.609 148.814 93.5044 147.709 93.5044H117.113C116.008 93.5044 115.113 92.609 115.113 91.5044V79.4788Z" fill="url(#paint4_linear_231_665)"/>
<path d="M89.8666 104.538C89.8666 104.538 75.8424 121.556 58.5426 121.556C41.2429 121.556 27.2186 104.538 27.2186 104.538C27.2186 104.538 41.2429 85.089 58.5426 85.089C75.8424 85.089 89.8666 104.538 89.8666 104.538Z" fill="url(#paint5_linear_231_665)"/>
<ellipse cx="58.5426" cy="103.79" rx="11.688" ry="12.1556" fill="url(#paint6_linear_231_665)"/>
<path fill-rule="evenodd" clip-rule="evenodd" d="M70.3435 102.87C69.7933 102.928 69.2346 102.958 68.6689 102.958C61.8362 102.958 56.0229 98.5938 53.8644 92.5009C55.2733 91.9147 56.8189 91.5911 58.4401 91.5911C64.8083 91.5911 70.0101 96.5847 70.3435 102.87Z" fill="white" fill-opacity="0.3"/>
<path d="M28.1181 58.8C28.1181 56.5067 28.5448 54.4933 29.3981 52.76C30.2781 51.0267 31.4648 49.6933 32.9581 48.76C34.4514 47.8267 36.1181 47.36 37.9581 47.36C39.5314 47.36 40.9048 47.68 42.0781 48.32C43.2781 48.96 44.1981 49.8 44.8381 50.84V47.68H51.6781V70H44.8381V66.84C44.1714 67.88 43.2381 68.72 42.0381 69.36C40.8648 70 39.4914 70.32 37.9181 70.32C36.1048 70.32 34.4514 69.8533 32.9581 68.92C31.4648 67.96 30.2781 66.6133 29.3981 64.88C28.5448 63.12 28.1181 61.0933 28.1181 58.8ZM44.8381 58.84C44.8381 57.1333 44.3581 55.7867 43.3981 54.8C42.4648 53.8133 41.3181 53.32 39.9581 53.32C38.5981 53.32 37.4381 53.8133 36.4781 54.8C35.5448 55.76 35.0781 57.0933 35.0781 58.8C35.0781 60.5067 35.5448 61.8667 36.4781 62.88C37.4381 63.8667 38.5981 64.36 39.9581 64.36C41.3181 64.36 42.4648 63.8667 43.3981 62.88C44.3581 61.8933 44.8381 60.5467 44.8381 58.84ZM74.1065 65.04H63.6265L61.9465 70H54.7865L64.9465 41.92H72.8666L83.0266 70H75.7865L74.1065 65.04ZM72.3465 59.76L68.8666 49.48L65.4265 59.76H72.3465Z" fill="url(#paint7_linear_231_665)"/>
<path fill-rule="evenodd" clip-rule="evenodd" d="M101.005 147.448C100.17 145.805 100.136 143.87 100.913 142.199L107.888 127.194C109.073 124.646 111.867 123.262 114.612 123.863L130.244 127.285C132.002 127.67 133.494 128.823 134.309 130.427L150.211 161.699C151.713 164.653 150.536 168.265 147.583 169.767L124.94 181.28C121.986 182.782 118.374 181.605 116.872 178.652L101.005 147.448ZM118.828 132.988C119.764 134.829 119.031 137.081 117.189 138.017C115.348 138.953 113.097 138.22 112.16 136.379C111.224 134.537 111.958 132.286 113.799 131.349C115.64 130.413 117.892 131.147 118.828 132.988ZM122.073 168.25C121.722 167.56 121.997 166.715 122.687 166.364L136.857 159.159C137.547 158.808 138.391 159.083 138.743 159.774C139.094 160.464 138.819 161.309 138.128 161.66L123.959 168.865C123.268 169.216 122.424 168.941 122.073 168.25ZM121.706 175.78C121.355 175.089 121.63 174.245 122.32 173.894L143.157 163.298C143.848 162.947 144.692 163.222 145.043 163.913C145.394 164.603 145.119 165.448 144.429 165.799L123.592 176.394C122.901 176.746 122.057 176.47 121.706 175.78Z" fill="url(#paint8_linear_231_665)"/>
<rect x="27.2186" y="138.386" width="21.506" height="21.506" rx="4" fill="url(#paint9_linear_231_665)"/>
<rect x="53.3999" y="141.192" width="32.0587" height="5.61026" rx="2" fill="url(#paint10_linear_231_665)"/>
<rect x="53.3999" y="151.477" width="20.0367" height="5.61026" rx="2" fill="url(#paint11_linear_231_665)"/>
<defs>
<linearGradient id="paint0_linear_231_665" x1="126.613" y1="28.7853" x2="-1.54858" y2="145.595" gradientUnits="userSpaceOnUse">
<stop stop-color="#D2E3FF"/>
<stop offset="1" stop-color="#C5DAFF"/>
</linearGradient>
<linearGradient id="paint1_linear_231_665" x1="38.9067" y1="13.2074" x2="24.981" y2="40.2693" gradientUnits="userSpaceOnUse">
<stop stop-color="#FFFBFA"/>
<stop offset="1" stop-color="#DBE4F2"/>
</linearGradient>
<linearGradient id="paint2_linear_231_665" x1="142.73" y1="93.2684" x2="132.378" y2="113.183" gradientUnits="userSpaceOnUse">
<stop stop-color="#6DA0F3"/>
<stop offset="1" stop-color="#2463CD"/>
</linearGradient>
<linearGradient id="paint3_linear_231_665" x1="99.9345" y1="64.4599" x2="151.57" y2="6.42008" gradientUnits="userSpaceOnUse">
<stop stop-color="#F3C03D"/>
<stop offset="1" stop-color="#FFE175"/>
</linearGradient>
<linearGradient id="paint4_linear_231_665" x1="145.429" y1="80.9206" x2="138.515" y2="100.841" gradientUnits="userSpaceOnUse">
<stop stop-color="#6DA0F3"/>
<stop offset="1" stop-color="#2463CD"/>
</linearGradient>
<linearGradient id="paint5_linear_231_665" x1="82.1163" y1="88.8379" x2="58.9488" y2="135.324" gradientUnits="userSpaceOnUse">
<stop stop-color="#6DA0F3"/>
<stop offset="1" stop-color="#2463CD"/>
</linearGradient>
<linearGradient id="paint6_linear_231_665" x1="67.3388" y1="94.1336" x2="48.1242" y2="115.713" gradientUnits="userSpaceOnUse">
<stop stop-color="#F8F8F8"/>
<stop offset="1" stop-color="#ADCCFF"/>
</linearGradient>
<linearGradient id="paint7_linear_231_665" x1="85.7095" y1="32.4766" x2="36.7367" y2="93.3075" gradientUnits="userSpaceOnUse">
<stop stop-color="#6DA0F3"/>
<stop offset="1" stop-color="#2463CD"/>
</linearGradient>
<linearGradient id="paint8_linear_231_665" x1="111.887" y1="126.791" x2="91.1579" y2="149.446" gradientUnits="userSpaceOnUse">
<stop stop-color="#FB51B7"/>
<stop offset="1" stop-color="#E149A4"/>
</linearGradient>
<linearGradient id="paint9_linear_231_665" x1="46.0641" y1="140.597" x2="29.1562" y2="160.345" gradientUnits="userSpaceOnUse">
<stop stop-color="#6DA0F3"/>
<stop offset="1" stop-color="#2463CD"/>
</linearGradient>
<linearGradient id="paint10_linear_231_665" x1="81.4925" y1="141.768" x2="76.0487" y2="162.565" gradientUnits="userSpaceOnUse">
<stop stop-color="#6DA0F3"/>
<stop offset="1" stop-color="#2463CD"/>
</linearGradient>
<linearGradient id="paint11_linear_231_665" x1="75.3734" y1="154.282" x2="64.3964" y2="177.284" gradientUnits="userSpaceOnUse">
<stop stop-color="#6DA0F3"/>
<stop offset="1" stop-color="#2463CD"/>
</linearGradient>
</defs>
</svg>
