<svg width="64" height="65" viewBox="0 0 64 65" fill="none" xmlns="http://www.w3.org/2000/svg">
<path d="M6.72755 39.268L14.9395 43.1579L10.3031 49.8549L2.2078 43.7834C1.11919 42.967 1.1461 41.3253 2.26088 40.5449L3.7229 39.5215C4.60613 38.9033 5.7532 38.8065 6.72755 39.268Z" fill="url(#paint0_linear_395_193)"/>
<path d="M24.8703 57.6402L21.4667 49.2152L14.5103 53.4525L20.0986 61.8886C20.8501 63.023 22.4906 63.092 23.3347 62.0247L24.4417 60.625C25.1105 59.7793 25.2741 58.6399 24.8703 57.6402Z" fill="url(#paint1_linear_395_193)"/>
<path d="M62.344 36.4457L57.6109 41.6731L54.2303 33.6544L57.0052 30.8454C57.8287 30.0118 59.1891 30.0615 59.9496 30.9529L62.383 33.8053C63.0355 34.5701 63.0188 35.7004 62.344 36.4457Z" fill="url(#paint2_linear_395_193)"/>
<path d="M26.2846 1.59715L21.1211 6.39993L29.1844 9.67267L31.9559 6.86037C32.7784 6.02581 32.7105 4.66617 31.809 3.91772L28.9242 1.52278C28.1507 0.880596 27.0207 0.91243 26.2846 1.59715Z" fill="url(#paint3_linear_395_193)"/>
<path d="M54.4915 57.0837L37.7652 35.2401L50.484 23.22L60.4243 46.7124C61.5193 49.3004 61.1762 52.2731 59.5204 54.5436L57.6954 57.0462C56.9081 58.1258 55.3038 58.1446 54.4915 57.0837Z" fill="url(#paint4_linear_395_193)"/>
<path d="M45.849 7.09638C27.9192 23.9228 15.9129 39.0723 9.67557 48.8992C6.69389 53.5968 10.2229 57.1862 14.9058 54.1815C30.456 44.2042 52.8806 22.8379 56.1521 19.9753C60.2733 16.3692 62.3339 4.52061 59.7582 3.4903C57.1824 2.46 51.0006 2.97515 45.849 7.09638Z" fill="url(#paint5_linear_395_193)"/>
<path d="M5.75187 9.72701L27.8177 26.159L39.6662 13.2802L16.0427 3.65575C13.4403 2.59551 10.4724 2.97843 8.22431 4.66449L5.7464 6.52292C4.67746 7.32463 4.6802 8.92895 5.75187 9.72701Z" fill="url(#paint6_linear_395_193)"/>
<path d="M49.9697 8.64294C51.6869 8.90713 55.1213 10.3073 55.1213 13.7945" stroke="url(#paint7_linear_395_193)" stroke-width="2" stroke-linecap="round"/>
<path d="M14.4246 48.8235L6.69727 57.0659" stroke="url(#paint8_linear_395_193)" stroke-width="4" stroke-linecap="round"/>
<defs>
<linearGradient id="paint0_linear_395_193" x1="13.0913" y1="39.6866" x2="4.8525" y2="52.3711" gradientUnits="userSpaceOnUse">
<stop stop-color="#73A3F2"/>
<stop offset="1" stop-color="#5488DF"/>
</linearGradient>
<linearGradient id="paint1_linear_395_193" x1="24.8241" y1="51.2629" x2="11.6801" y2="58.7468" gradientUnits="userSpaceOnUse">
<stop stop-color="#73A3F2"/>
<stop offset="1" stop-color="#5488DF"/>
</linearGradient>
<linearGradient id="paint2_linear_395_193" x1="61.3034" y1="32.8572" x2="55.1216" y2="38.5239" gradientUnits="userSpaceOnUse">
<stop stop-color="#EC407A"/>
<stop offset="1" stop-color="#BD2E5F"/>
</linearGradient>
<linearGradient id="paint3_linear_395_193" x1="29.8787" y1="2.46052" x2="24.212" y2="8.64236" gradientUnits="userSpaceOnUse">
<stop stop-color="#EC407A"/>
<stop offset="1" stop-color="#BD2E5F"/>
</linearGradient>
<linearGradient id="paint4_linear_395_193" x1="59.3873" y1="27.5622" x2="30.6527" y2="44.5972" gradientUnits="userSpaceOnUse">
<stop stop-color="#73A3F2"/>
<stop offset="1" stop-color="#5488DF"/>
</linearGradient>
<linearGradient id="paint5_linear_395_193" x1="59.243" y1="3.49037" x2="0.442652" y2="44.581" gradientUnits="userSpaceOnUse">
<stop stop-color="#C8DCFF"/>
<stop offset="1" stop-color="#A2BFF1"/>
</linearGradient>
<linearGradient id="paint6_linear_395_193" x1="35.2051" y1="4.43588" x2="18.5568" y2="33.3963" gradientUnits="userSpaceOnUse">
<stop stop-color="#73A3F2"/>
<stop offset="1" stop-color="#5488DF"/>
</linearGradient>
<linearGradient id="paint7_linear_395_193" x1="53.5758" y1="9.1581" x2="52.0303" y2="11.2187" gradientUnits="userSpaceOnUse">
<stop stop-color="#769DDF"/>
<stop offset="1" stop-color="#4D6DA4"/>
</linearGradient>
<linearGradient id="paint8_linear_395_193" x1="12.1758" y1="50.7698" x2="7.31908" y2="54.5969" gradientUnits="userSpaceOnUse">
<stop stop-color="#F7578D"/>
<stop offset="1" stop-color="#D84274"/>
</linearGradient>
</defs>
</svg>
