<svg width="180" height="180" viewBox="0 0 180 180" fill="none" xmlns="http://www.w3.org/2000/svg">
<rect width="180" height="180" fill="white"/>
<g clip-path="url(#clip0_956_3)">
<path d="M146.975 89.6924C146.649 90.018 146.2 90.2198 145.712 90.2198H38.853C38.2279 90.2198 37.8502 90.7603 37.5247 90.2654L80.6823 48.703C82.0497 47.4008 83.5799 46.372 85.2077 45.6166C89.629 43.5525 94.7535 43.5069 99.2073 45.4734C100.933 46.2352 102.561 47.3031 104.006 48.6705L146.975 89.6924V89.6924Z" fill="url(#paint0_linear_956_3)" stroke="#A8BFE5" stroke-miterlimit="10"/>
<path d="M145.152 89.6665L99.2073 120.85C94.7535 118.883 89.629 118.929 85.2077 120.993L37.5247 90.2656C37.8502 89.8944 38.3256 89.6665 38.853 89.6665H145.152Z" fill="url(#paint1_linear_956_3)" stroke="#A8BFE5" stroke-miterlimit="10"/>
<path d="M151.82 85.1411L145.152 89.6665" stroke="#A3AFC6" stroke-miterlimit="10"/>
<path d="M85.2078 120.993L92.2792 125.551L99.2073 120.85" stroke="#A3AFC6" stroke-miterlimit="10"/>
<path d="M90.775 130.89C90.775 130.89 84.4133 75.8752 88.2746 65.2747" stroke="#0148F9" stroke-miterlimit="10"/>
<path d="M81.2292 59.3948C81.2292 59.3948 85.8589 78.1932 97.4492 60.8208Z" fill="url(#paint2_linear_956_3)"/>
<path d="M81.2292 59.3948C81.2292 59.3948 85.8589 78.1932 97.4492 60.8208" stroke="#0148F9" stroke-miterlimit="10"/>
<path d="M91.9145 60.0981C91.9145 60.0981 92.8326 63.7185 88.2747 68.1853" stroke="#0148F9" stroke-miterlimit="10"/>
<path d="M86.7053 67.8076C86.7053 67.8076 83.9054 63.2692 83.8142 58.1382" stroke="#0148F9" stroke-miterlimit="10"/>
<path d="M87.617 59.3948C87.617 59.3948 88.6132 64.4346 87.2849 68.0224" stroke="#0148F9" stroke-miterlimit="10"/>
<path d="M90.9182 45.4279C84.2635 43.761 78.0581 21.0361 86.8095 16.3023C91.5237 13.7564 100.49 16.4651 104.026 21.4138C110.693 30.7512 97.3254 47.0297 90.9182 45.4279V45.4279Z" fill="url(#paint3_linear_956_3)" stroke="#0148F9" stroke-miterlimit="10"/>
<path d="M95.0333 47.0492C91.0548 42.9405 94.8966 29.6116 102.671 25.7764C111.084 21.6286 120.571 30.3409 118.754 36.9695C116.723 44.373 99.8257 51.9914 95.0333 47.0492V47.0492Z" fill="url(#paint4_linear_956_3)" stroke="#0148F9" stroke-miterlimit="10"/>
<path d="M84.335 46.6C79.445 48.8529 64.2148 36.9566 67.4119 27.2611C69.1048 22.1171 75.8442 18.0084 80.3631 19.532C88.6456 22.3319 89.6418 44.1517 84.335 46.6Z" fill="url(#paint5_linear_956_3)" stroke="#0148F9" stroke-miterlimit="10"/>
<path d="M104.8 50.7542C102.534 58.4963 94.4213 62.9436 86.6792 60.6776C78.9371 58.4117 74.4898 50.2984 76.7558 42.5564C79.0218 34.8143 87.135 30.367 94.877 32.633C102.619 34.8989 107.066 43.0122 104.8 50.7542V50.7542Z" fill="white" stroke="#0148F9" stroke-miterlimit="10"/>
<path d="M89.0494 61.1659C89.0494 61.1659 71.716 58.353 65.8623 51.796C60.0085 45.239 62.1442 38.5908 67.3404 37.4057C77.381 35.1202 89.2057 61.2636 89.0494 61.1659Z" fill="url(#paint6_linear_956_3)" stroke="#0148F9" stroke-miterlimit="10"/>
<path d="M89.0493 61.1661C89.0493 61.1661 111.507 27.8927 120.838 44.7443C130.162 61.5958 89.0493 61.1661 89.0493 61.1661Z" fill="url(#paint7_linear_956_3)" stroke="#0148F9" stroke-miterlimit="10"/>
<path d="M88.2746 40.6616C88.2746 40.6616 86.1518 38.617 84.1528 40.9156" stroke="#0148F9" stroke-miterlimit="10" stroke-linecap="round"/>
<path d="M94.812 41.456C94.812 41.456 97.3645 39.9779 98.7579 42.6866" stroke="#0148F9" stroke-miterlimit="10" stroke-linecap="round"/>
<path d="M95.1961 47.3098C95.1961 47.3098 90.2605 55.1235 86.282 46.6521" stroke="#0148F9" stroke-miterlimit="10"/>
<path d="M86.282 47.7849C86.9041 47.7849 87.4085 47.2806 87.4085 46.6585C87.4085 46.0363 86.9041 45.532 86.282 45.532C85.6599 45.532 85.1555 46.0363 85.1555 46.6585C85.1555 47.2806 85.6599 47.7849 86.282 47.7849Z" fill="white" stroke="#0148F9" stroke-miterlimit="10"/>
<path d="M95.1441 48.8594C95.7662 48.8594 96.2705 48.3551 96.2705 47.7329C96.2705 47.1108 95.7662 46.6064 95.1441 46.6064C94.5219 46.6064 94.0176 47.1108 94.0176 47.7329C94.0176 48.3551 94.5219 48.8594 95.1441 48.8594Z" fill="white" stroke="#0148F9" stroke-miterlimit="10"/>
<path d="M88.6782 129.386C88.6782 129.386 83.9575 98.4894 114.841 87.3679C114.841 87.3679 103.511 115.4 88.6782 129.386Z" fill="url(#paint8_linear_956_3)" stroke="#0148F9" stroke-linejoin="round"/>
<path d="M89.3425 130.311C89.3425 130.311 101.727 100.86 123.664 94.6411C123.664 94.6411 112.439 123.942 89.3425 130.311Z" fill="url(#paint9_linear_956_3)" stroke="#0148F9" stroke-linejoin="round"/>
<path d="M89.5704 124.958C89.5704 124.958 72.2696 90.1158 81.2293 69.1555C81.2293 69.1555 99.1422 103.002 89.5704 124.958Z" fill="url(#paint10_linear_956_3)" stroke="#0148F9" stroke-linejoin="round"/>
<path d="M75.4666 107.072C75.4666 107.072 98.1002 99.3686 93.0083 91.5745C84.2374 78.1349 75.4666 107.072 75.4666 107.072Z" fill="url(#paint11_linear_956_3)" stroke="#0148F9" stroke-linejoin="round"/>
<path d="M72.9402 97.1676C72.9402 97.1676 89.9285 84.8545 83.2347 81.8463C74.0211 77.705 72.9402 97.1676 72.9402 97.1676Z" fill="url(#paint12_linear_956_3)" stroke="#0148F9" stroke-linejoin="round"/>
<path d="M70.915 84.8156C70.915 84.8156 83.9248 75.4977 78.8264 73.1732C71.8136 69.9761 70.915 84.8156 70.915 84.8156Z" fill="url(#paint13_linear_956_3)" stroke="#0148F9" stroke-linecap="round" stroke-linejoin="round"/>
<path d="M76.782 112.743C76.782 112.743 102.398 112.157 100.217 104.278C97.1236 93.1111 76.782 112.743 76.782 112.743V112.743Z" fill="url(#paint14_linear_956_3)" stroke="#0148F9" stroke-linejoin="round"/>
<path d="M78.3706 118.375C78.3706 118.375 104.748 126.384 105.165 117.601C105.758 105.151 78.3706 118.375 78.3706 118.375Z" fill="url(#paint15_linear_956_3)" stroke="#0148F9" stroke-linejoin="round"/>
<path d="M77.0229 112.977C77.0229 112.977 53.8162 123.845 52.2665 115.823C50.0656 104.447 77.0229 112.977 77.0229 112.977V112.977Z" fill="url(#paint16_linear_956_3)" stroke="#0148F9" stroke-linejoin="round"/>
<path d="M78.1103 118.727C78.1103 118.727 58.0552 137.636 53.7707 129.953C47.702 119.066 78.1103 118.727 78.1103 118.727Z" fill="url(#paint17_linear_956_3)" stroke="#0148F9" stroke-linejoin="round"/>
<path d="M75.4667 107.247C75.4667 107.247 52.1363 112.45 52.4228 103.145C52.9177 87.1009 75.4667 107.247 75.4667 107.247Z" fill="url(#paint18_linear_956_3)" stroke="#0148F9" stroke-linejoin="round"/>
<path d="M72.9402 97.1808C72.9402 97.1808 52.0255 95.5074 56.1733 89.4518C61.8838 81.1237 72.9402 97.1808 72.9402 97.1808Z" fill="url(#paint19_linear_956_3)" stroke="#0148F9" stroke-linejoin="round"/>
<path d="M71.1952 84.8351C71.1952 84.8351 55.2357 83.65 58.3742 79.0139C62.6978 72.6327 71.1952 84.8351 71.1952 84.8351Z" fill="url(#paint20_linear_956_3)" stroke="#0148F9" stroke-linecap="round" stroke-linejoin="round"/>
<path d="M81.4375 128.924C81.4375 128.924 70.4853 95.696 69.0398 67.71" stroke="#0148F9" stroke-miterlimit="10"/>
<path d="M70.036 78.1283C70.036 78.1283 75.3363 63.0283 69.8342 64.0506C62.2614 65.4571 70.036 78.1283 70.036 78.1283Z" fill="url(#paint21_linear_956_3)" stroke="#0148F9" stroke-linecap="round" stroke-linejoin="round"/>
<path d="M37.0559 87.2704C37.0559 87.2704 53.4582 97.5584 49.7011 77.0149Z" fill="url(#paint22_linear_956_3)"/>
<path d="M37.0559 87.2704C37.0559 87.2704 53.4582 97.5584 49.7011 77.0149" stroke="#0148F9" stroke-miterlimit="10"/>
<path d="M45.2275 80.3486C45.2275 80.3486 48.4051 82.3151 48.2358 88.6898" stroke="#0148F9" stroke-miterlimit="10"/>
<path d="M46.8425 89.5104C46.8425 89.5104 41.6724 88.1951 38.0391 84.5747" stroke="#0148F9" stroke-miterlimit="10"/>
<path d="M35.6299 71.6624C29.3855 74.5079 10.3721 60.5995 14.2725 51.4379C16.3691 46.5088 25.0684 43.0382 30.9221 44.7116C41.959 47.8566 41.6399 68.9211 35.6299 71.6624V71.6624Z" fill="url(#paint23_linear_956_3)" stroke="#0148F9" stroke-miterlimit="10"/>
<path d="M39.8622 70.3667C34.1908 69.6374 28.8905 56.8099 32.5825 48.9702C36.574 40.4793 49.4275 41.3844 52.1363 47.707C55.1575 54.7588 46.6862 71.2522 39.8622 70.3667Z" fill="url(#paint24_linear_956_3)" stroke="#0148F9" stroke-miterlimit="10"/>
<path d="M31.2151 76.6827C28.7928 81.4882 9.47345 81.677 5.92473 72.1052C4.04293 67.0263 6.75819 59.6098 11.238 57.9885C19.462 55.0127 33.8392 71.4606 31.2085 76.6827H31.2151Z" fill="url(#paint25_linear_956_3)" stroke="#0148F9" stroke-miterlimit="10"/>
<path d="M49.8116 67.1826C52.8655 74.6512 49.2842 83.1811 41.8221 86.235C34.3535 89.2888 25.8236 85.7141 22.7697 78.2455C19.7159 70.7769 23.2906 62.2469 30.7592 59.1931C38.2278 56.1392 46.7578 59.714 49.8116 67.1826Z" fill="white" stroke="#0148F9" stroke-miterlimit="10"/>
<path d="M43.9773 85.1346C43.9773 85.1346 28.6625 93.7362 20.0023 92.2581C11.3356 90.78 8.86779 84.2491 12.1951 80.0818C18.6219 72.0337 44.1597 85.1151 43.9773 85.1411V85.1346Z" fill="url(#paint26_linear_956_3)" stroke="#0148F9" stroke-miterlimit="10"/>
<path d="M43.9774 85.141C43.9774 85.141 40.8129 45.1219 58.6021 52.4928C76.3978 59.8637 43.9774 85.141 43.9774 85.141V85.141Z" fill="url(#paint27_linear_956_3)" stroke="#0148F9" stroke-miterlimit="10"/>
<path d="M30.5964 69.5852C30.5964 69.5852 27.6598 69.3117 27.5295 72.3526" stroke="#0148F9" stroke-miterlimit="10" stroke-linecap="round"/>
<path d="M36.2029 66.1278C36.2029 66.1278 37.2773 63.38 40.0576 64.6367" stroke="#0148F9" stroke-miterlimit="10" stroke-linecap="round"/>
<path d="M40.1488 70.4709C40.1488 70.4709 41.1581 79.6586 32.7649 75.5108" stroke="#0148F9" stroke-miterlimit="10"/>
<path d="M32.7713 76.6436C33.3934 76.6436 33.8977 76.1392 33.8977 75.5171C33.8977 74.895 33.3934 74.3906 32.7713 74.3906C32.1491 74.3906 31.6448 74.895 31.6448 75.5171C31.6448 76.1392 32.1491 76.6436 32.7713 76.6436Z" fill="white" stroke="#0148F9" stroke-miterlimit="10"/>
<path d="M40.3701 71.9619C40.9923 71.9619 41.4966 71.4576 41.4966 70.8355C41.4966 70.2133 40.9923 69.709 40.3701 69.709C39.748 69.709 39.2437 70.2133 39.2437 70.8355C39.2437 71.4576 39.748 71.9619 40.3701 71.9619Z" fill="white" stroke="#0148F9" stroke-miterlimit="10"/>
<path d="M64.5797 131.952C64.5797 131.952 63.5964 101.83 47.4091 89.2562C44.3878 86.9121 43.9775 85.1345 43.9775 85.1345" stroke="#0148F9" stroke-miterlimit="10"/>
<path d="M112.087 95.1816C112.087 95.1816 106.819 87.0489 109.892 84.1513C112.907 81.3123 119.673 83.4937 120.669 86.821C121.795 90.5781 112.087 95.1816 112.087 95.1816Z" fill="url(#paint28_linear_956_3)" stroke="#0148F9" stroke-miterlimit="10"/>
<path d="M112.426 95.071C112.426 95.071 120.116 90.4999 123.059 93.4887C125.95 96.4253 124.114 102.65 120.923 103.445C117.316 104.337 112.426 95.071 112.426 95.071V95.071Z" fill="url(#paint29_linear_956_3)" stroke="#0148F9" stroke-miterlimit="10"/>
<path d="M112.074 95.1687C112.074 95.1687 116.69 102.305 114.001 104.845C111.358 107.339 105.419 105.418 104.547 102.501C103.557 99.2058 112.074 95.1687 112.074 95.1687V95.1687Z" fill="url(#paint30_linear_956_3)" stroke="#0148F9" stroke-miterlimit="10"/>
<path d="M111.735 95.1752C111.735 95.1752 103.746 99.6485 101.05 96.5491C98.3998 93.5083 100.705 87.2248 103.941 86.489C107.587 85.662 111.735 95.1687 111.735 95.1687V95.1752Z" fill="url(#paint31_linear_956_3)" stroke="#0148F9" stroke-miterlimit="10"/>
<path d="M112.074 95.1687C112.074 95.1687 93.8614 101.687 87.2849 125.362" stroke="#0148F9" stroke-miterlimit="10"/>
<path d="M78.0258 109.344C78.0258 109.344 70.4074 103.353 72.3739 99.6224C74.3013 95.9565 81.4182 95.8327 83.4368 98.6587C85.7158 101.849 78.0258 109.35 78.0258 109.35V109.344Z" fill="url(#paint32_linear_956_3)" stroke="#0148F9" stroke-miterlimit="10"/>
<path d="M78.3123 109.136C78.3123 109.136 84.1074 102.318 87.8645 104.193C91.55 106.03 91.83 112.521 89.0626 114.306C85.9436 116.318 78.3123 109.136 78.3123 109.136V109.136Z" fill="url(#paint33_linear_956_3)" stroke="#0148F9" stroke-miterlimit="10"/>
<path d="M78.0126 109.344C78.0126 109.344 84.6933 114.599 82.9678 117.874C81.2748 121.091 75.0369 121.195 73.2658 118.72C71.2668 115.921 78.0126 109.344 78.0126 109.344Z" fill="url(#paint34_linear_956_3)" stroke="#0148F9" stroke-miterlimit="10"/>
<path d="M77.6936 109.455C77.6936 109.455 71.5859 116.272 68.0307 114.214C64.5406 112.196 64.6838 105.502 67.5032 103.764C70.6873 101.797 77.6936 109.455 77.6936 109.455Z" fill="url(#paint35_linear_956_3)" stroke="#0148F9" stroke-miterlimit="10"/>
<path d="M77.6936 109.455C77.6936 109.455 92.9954 117.744 94.6233 134.27" stroke="#0148F9" stroke-miterlimit="10"/>
<path d="M85.2077 120.993C83.5798 121.748 82.0496 122.777 80.6822 124.079L37.3488 164.776C37.1664 164.496 37.0623 164.157 37.0623 163.799V91.457C37.0623 91.0012 37.2381 90.5844 37.5246 90.2654L85.2077 120.993Z" fill="url(#paint36_linear_956_3)" stroke="#A8BFE5" stroke-miterlimit="10"/>
<path d="M147.502 91.4571V163.799C147.502 164.294 147.301 164.743 146.975 165.069L104.006 124.047C102.561 122.679 100.933 121.612 99.2073 120.85L145.152 89.6665H145.712C146.695 89.6665 147.502 90.4739 147.502 91.4571V91.4571Z" fill="url(#paint37_linear_956_3)" stroke="#A8BFE5" stroke-miterlimit="10"/>
<path d="M37.3489 164.776L80.6823 124.079C82.0497 122.777 83.5799 121.748 85.2078 120.993C89.629 118.929 94.7535 118.883 99.2073 120.85C100.933 121.611 102.561 122.679 104.006 124.047L146.975 165.069" fill="url(#paint38_linear_956_3)"/>
<path d="M37.3489 164.776L80.6823 124.079C82.0497 122.777 83.5799 121.748 85.2078 120.993C89.629 118.929 94.7535 118.883 99.2073 120.85C100.933 121.611 102.561 122.679 104.006 124.047L146.975 165.069" stroke="#A1B5D6" stroke-miterlimit="10"/>
<path d="M124.114 95.1556C126.113 93.2152 127.988 91.6069 129.635 90.4804C130.723 89.7316 131.719 89.1976 132.591 88.9111" stroke="#0148F9" stroke-miterlimit="10"/>
<path d="M129.785 79.5215C129.785 79.5215 121.906 97.2065 141.72 90.5974Z" fill="url(#paint39_linear_956_3)"/>
<path d="M129.785 79.5215C129.785 79.5215 121.906 97.2065 141.72 90.5974" stroke="#0148F9" stroke-miterlimit="10"/>
<path d="M137.788 86.6321C137.788 86.6321 136.29 90.0506 129.954 90.7864" stroke="#0148F9" stroke-miterlimit="10"/>
<path d="M128.945 89.5232C128.945 89.5232 129.518 84.2164 132.591 80.1143" stroke="#0148F9" stroke-miterlimit="10"/>
<path d="M134.825 83.4414C134.825 83.4414 132.52 88.032 129.271 90.0505" stroke="#0148F9" stroke-miterlimit="10"/>
<path d="M144.462 74.8921C140.158 69.5527 148.896 47.6743 158.735 49.172C164.028 49.9794 169.557 57.5456 169.394 63.6273C169.088 75.1004 148.609 80.0361 144.462 74.8921V74.8921Z" fill="url(#paint40_linear_956_3)" stroke="#0148F9" stroke-miterlimit="10"/>
<path d="M146.767 78.6621C146.063 72.9907 157.165 64.6626 165.682 66.2839C174.896 68.042 177.221 80.7132 171.771 84.9066C165.689 89.5883 147.613 85.4861 146.767 78.6556V78.6621Z" fill="url(#paint41_linear_956_3)" stroke="#0148F9" stroke-miterlimit="10"/>
<path d="M138.504 71.8642C133.242 70.7182 128.255 52.0499 136.648 46.2353C141.102 43.1488 148.954 43.9302 151.644 47.8696C156.573 55.0973 144.214 73.1079 138.504 71.8642Z" fill="url(#paint42_linear_956_3)" stroke="#0148F9" stroke-miterlimit="10"/>
<path d="M152.327 87.511C145.855 92.3295 136.7 90.9816 131.882 84.5093C127.063 78.0369 128.411 68.8819 134.883 64.0634C141.356 59.245 150.511 60.5928 155.329 67.0652C160.148 73.5375 158.8 82.6926 152.327 87.511V87.511Z" fill="white" stroke="#0148F9" stroke-miterlimit="10"/>
<path d="M133.49 86.3259C133.49 86.3259 121.353 73.6352 120.63 64.8773C119.907 56.1195 125.618 52.0954 130.482 54.2833C139.878 58.5092 133.555 86.4952 133.49 86.3259V86.3259Z" fill="url(#paint43_linear_956_3)" stroke="#0148F9" stroke-miterlimit="10"/>
<path d="M133.483 86.3261C133.483 86.3261 171.458 73.3032 168.749 92.3687C166.04 111.434 133.483 86.3261 133.483 86.3261Z" fill="url(#paint44_linear_956_3)" stroke="#0148F9" stroke-miterlimit="10"/>
<path d="M145.224 69.4941C145.224 69.4941 144.761 66.5835 141.779 67.2086" stroke="#0148F9" stroke-miterlimit="10" stroke-linecap="round"/>
<path d="M149.964 74.0715C149.964 74.0715 152.894 74.4297 152.367 77.4314" stroke="#0148F9" stroke-miterlimit="10" stroke-linecap="round"/>
<path d="M146.741 78.968C146.741 78.968 138.094 82.2302 140.021 73.0752" stroke="#0148F9" stroke-miterlimit="10"/>
<path d="M140.021 74.2017C140.643 74.2017 141.147 73.6973 141.147 73.0752C141.147 72.4531 140.643 71.9487 140.021 71.9487C139.399 71.9487 138.894 72.4531 138.894 73.0752C138.894 73.6973 139.399 74.2017 140.021 74.2017Z" fill="white" stroke="#0148F9" stroke-miterlimit="10"/>
<path d="M146.441 80.4007C147.063 80.4007 147.568 79.8963 147.568 79.2742C147.568 78.652 147.063 78.1477 146.441 78.1477C145.819 78.1477 145.315 78.652 145.315 79.2742C145.315 79.8963 145.819 80.4007 146.441 80.4007Z" fill="white" stroke="#0148F9" stroke-miterlimit="10"/>
<path d="M146.975 165.069C146.649 165.394 146.2 165.596 145.712 165.596H38.853C38.2279 165.596 37.6744 165.27 37.3489 164.776L80.6823 124.079C82.0497 122.777 83.5799 121.748 85.2078 120.993C89.629 118.929 94.7535 118.883 99.2073 120.85C100.933 121.611 102.561 122.679 104.006 124.047L146.975 165.069V165.069Z" fill="url(#paint45_linear_956_3)" stroke="#A8BFE5" stroke-miterlimit="10"/>
</g>
<defs>
<linearGradient id="paint0_linear_956_3" x1="92.5852" y1="113.042" x2="91.9275" y2="67.6968" gradientUnits="userSpaceOnUse">
<stop stop-color="#D8E1EF"/>
<stop offset="1" stop-color="white"/>
</linearGradient>
<linearGradient id="paint1_linear_956_3" x1="89.655" y1="140" x2="91.335" y2="90.0246" gradientUnits="userSpaceOnUse">
<stop offset="0.42" stop-color="#D8E1EF"/>
<stop offset="1" stop-color="white"/>
</linearGradient>
<linearGradient id="paint2_linear_956_3" x1="85.7026" y1="69.2596" x2="91.3154" y2="55.1428" gradientUnits="userSpaceOnUse">
<stop stop-color="#D6E2FE"/>
<stop offset="1" stop-color="white"/>
</linearGradient>
<linearGradient id="paint3_linear_956_3" x1="87.4148" y1="43.8954" x2="97.2148" y2="18.5988" gradientUnits="userSpaceOnUse">
<stop stop-color="#D6E2FE"/>
<stop offset="1" stop-color="white"/>
</linearGradient>
<linearGradient id="paint4_linear_956_3" x1="90.5869" y1="41.1057" x2="111.173" y2="34.2705" gradientUnits="userSpaceOnUse">
<stop stop-color="#D6E2FE"/>
<stop offset="1" stop-color="white"/>
</linearGradient>
<linearGradient id="paint5_linear_956_3" x1="83.8613" y1="48.9083" x2="73.5958" y2="21.5109" gradientUnits="userSpaceOnUse">
<stop stop-color="#D6E2FE"/>
<stop offset="1" stop-color="white"/>
</linearGradient>
<linearGradient id="paint6_linear_956_3" x1="93.2282" y1="62.3632" x2="67.8511" y2="44.3086" gradientUnits="userSpaceOnUse">
<stop stop-color="#D6E2FE"/>
<stop offset="1" stop-color="white"/>
</linearGradient>
<linearGradient id="paint7_linear_956_3" x1="83.2" y1="56.627" x2="109.184" y2="50.0074" gradientUnits="userSpaceOnUse">
<stop stop-color="#D6E2FE"/>
<stop offset="1" stop-color="white"/>
</linearGradient>
<linearGradient id="paint8_linear_956_3" x1="84.1579" y1="127.509" x2="118.491" y2="79.5246" gradientUnits="userSpaceOnUse">
<stop stop-color="#617DF4"/>
<stop offset="1" stop-color="#E9EFFD"/>
</linearGradient>
<linearGradient id="paint9_linear_956_3" x1="87.5599" y1="129.981" x2="131.115" y2="90.184" gradientUnits="userSpaceOnUse">
<stop stop-color="#617DF4"/>
<stop offset="1" stop-color="#E9EFFD"/>
</linearGradient>
<linearGradient id="paint10_linear_956_3" x1="87.3132" y1="126.348" x2="83.2712" y2="59.3282" gradientUnits="userSpaceOnUse">
<stop stop-color="#617DF4"/>
<stop offset="1" stop-color="#E9EFFD"/>
</linearGradient>
<linearGradient id="paint11_linear_956_3" x1="71.755" y1="108.107" x2="94.2064" y2="88.6508" gradientUnits="userSpaceOnUse">
<stop stop-color="#7FA3FC"/>
<stop offset="1" stop-color="white"/>
</linearGradient>
<linearGradient id="paint12_linear_956_3" x1="68.8901" y1="98.5741" x2="84.0161" y2="80.9216" gradientUnits="userSpaceOnUse">
<stop stop-color="#7FA3FC"/>
<stop offset="1" stop-color="white"/>
</linearGradient>
<linearGradient id="paint13_linear_956_3" x1="67.9719" y1="85.5904" x2="79.9789" y2="71.8969" gradientUnits="userSpaceOnUse">
<stop stop-color="#7FA3FC"/>
<stop offset="1" stop-color="white"/>
</linearGradient>
<linearGradient id="paint14_linear_956_3" x1="76.0397" y1="112.769" x2="101.74" y2="102.683" gradientUnits="userSpaceOnUse">
<stop stop-color="#7FA3FC"/>
<stop offset="1" stop-color="white"/>
</linearGradient>
<linearGradient id="paint15_linear_956_3" x1="75.46" y1="119.228" x2="106.083" y2="116.227" gradientUnits="userSpaceOnUse">
<stop stop-color="#7FA3FC"/>
<stop offset="1" stop-color="white"/>
</linearGradient>
<linearGradient id="paint16_linear_956_3" x1="79.2302" y1="113.759" x2="44.889" y2="114.722" gradientUnits="userSpaceOnUse">
<stop stop-color="#7FA3FC"/>
<stop offset="1" stop-color="white"/>
</linearGradient>
<linearGradient id="paint17_linear_956_3" x1="80.3438" y1="119.417" x2="52.3642" y2="128.781" gradientUnits="userSpaceOnUse">
<stop stop-color="#7FA3FC"/>
<stop offset="1" stop-color="white"/>
</linearGradient>
<linearGradient id="paint18_linear_956_3" x1="78.0843" y1="106.883" x2="48.0666" y2="100.514" gradientUnits="userSpaceOnUse">
<stop stop-color="#7FA3FC"/>
<stop offset="1" stop-color="white"/>
</linearGradient>
<linearGradient id="paint19_linear_956_3" x1="75.7271" y1="96.4581" x2="52.6702" y2="87.9346" gradientUnits="userSpaceOnUse">
<stop stop-color="#7FA3FC"/>
<stop offset="1" stop-color="white"/>
</linearGradient>
<linearGradient id="paint20_linear_956_3" x1="73.6695" y1="84.4184" x2="56.258" y2="78.0567" gradientUnits="userSpaceOnUse">
<stop stop-color="#7FA3FC"/>
<stop offset="1" stop-color="white"/>
</linearGradient>
<linearGradient id="paint21_linear_956_3" x1="68.6165" y1="77.2558" x2="69.8146" y2="63.4516" gradientUnits="userSpaceOnUse">
<stop stop-color="#7FA3FC"/>
<stop offset="1" stop-color="white"/>
</linearGradient>
<linearGradient id="paint22_linear_956_3" x1="47.1342" y1="91.2424" x2="41.3483" y2="77.1957" gradientUnits="userSpaceOnUse">
<stop stop-color="#D6E2FE"/>
<stop offset="1" stop-color="white"/>
</linearGradient>
<linearGradient id="paint23_linear_956_3" x1="31.9415" y1="72.6377" x2="23.8408" y2="46.7468" gradientUnits="userSpaceOnUse">
<stop stop-color="#D6E2FE"/>
<stop offset="1" stop-color="white"/>
</linearGradient>
<linearGradient id="paint24_linear_956_3" x1="32.6781" y1="68.4827" x2="44.5179" y2="50.308" gradientUnits="userSpaceOnUse">
<stop stop-color="#D6E2FE"/>
<stop offset="1" stop-color="white"/>
</linearGradient>
<linearGradient id="paint25_linear_956_3" x1="32.2808" y1="78.7761" x2="7.17847" y2="63.747" gradientUnits="userSpaceOnUse">
<stop stop-color="#D6E2FE"/>
<stop offset="1" stop-color="white"/>
</linearGradient>
<linearGradient id="paint26_linear_956_3" x1="47.9912" y1="83.4615" x2="16.8931" y2="85.1566" gradientUnits="userSpaceOnUse">
<stop stop-color="#D6E2FE"/>
<stop offset="1" stop-color="white"/>
</linearGradient>
<linearGradient id="paint27_linear_956_3" x1="36.5738" y1="85.2247" x2="52.7698" y2="63.8545" gradientUnits="userSpaceOnUse">
<stop stop-color="#D6E2FE"/>
<stop offset="1" stop-color="white"/>
</linearGradient>
<linearGradient id="paint28_linear_956_3" x1="109.741" y1="101.402" x2="118.011" y2="77.8884" gradientUnits="userSpaceOnUse">
<stop stop-color="#D6E2FE"/>
<stop offset="1" stop-color="white"/>
</linearGradient>
<linearGradient id="paint29_linear_956_3" x1="107.029" y1="94.4145" x2="132.118" y2="101.066" gradientUnits="userSpaceOnUse">
<stop stop-color="#D6E2FE"/>
<stop offset="1" stop-color="white"/>
</linearGradient>
<linearGradient id="paint30_linear_956_3" x1="111.486" y1="96.5912" x2="108.727" y2="105.346" gradientUnits="userSpaceOnUse">
<stop stop-color="#D6E2FE"/>
<stop offset="1" stop-color="white"/>
</linearGradient>
<linearGradient id="paint31_linear_956_3" x1="113.625" y1="94.3309" x2="98.0593" y2="90.6407" gradientUnits="userSpaceOnUse">
<stop stop-color="#D6E2FE"/>
<stop offset="1" stop-color="white"/>
</linearGradient>
<linearGradient id="paint32_linear_956_3" x1="77.8257" y1="115.995" x2="78.0333" y2="91.0702" gradientUnits="userSpaceOnUse">
<stop stop-color="#D6E2FE"/>
<stop offset="1" stop-color="white"/>
</linearGradient>
<linearGradient id="paint33_linear_956_3" x1="72.996" y1="110.263" x2="98.887" y2="108.428" gradientUnits="userSpaceOnUse">
<stop stop-color="#D6E2FE"/>
<stop offset="1" stop-color="white"/>
</linearGradient>
<linearGradient id="paint34_linear_956_3" x1="77.9189" y1="110.867" x2="78.144" y2="120.044" gradientUnits="userSpaceOnUse">
<stop stop-color="#D6E2FE"/>
<stop offset="1" stop-color="white"/>
</linearGradient>
<linearGradient id="paint35_linear_956_3" x1="79.2035" y1="108.045" x2="63.2878" y2="109.598" gradientUnits="userSpaceOnUse">
<stop stop-color="#D6E2FE"/>
<stop offset="1" stop-color="white"/>
</linearGradient>
<linearGradient id="paint36_linear_956_3" x1="33.1554" y1="170.336" x2="51.1595" y2="128.969" gradientUnits="userSpaceOnUse">
<stop stop-color="#D8E1EF"/>
<stop offset="1" stop-color="white"/>
</linearGradient>
<linearGradient id="paint37_linear_956_3" x1="143.537" y1="173.006" x2="125.312" y2="112.522" gradientUnits="userSpaceOnUse">
<stop stop-color="#D8E1EF"/>
<stop offset="1" stop-color="white"/>
</linearGradient>
<linearGradient id="paint38_linear_956_3" x1="91.9341" y1="171.723" x2="92.8261" y2="145.222" gradientUnits="userSpaceOnUse">
<stop stop-color="#D8E1EF"/>
<stop offset="1" stop-color="white"/>
</linearGradient>
<linearGradient id="paint39_linear_956_3" x1="127.256" y1="90.0559" x2="140.346" y2="82.3582" gradientUnits="userSpaceOnUse">
<stop stop-color="#D6E2FE"/>
<stop offset="1" stop-color="white"/>
</linearGradient>
<linearGradient id="paint40_linear_956_3" x1="142.595" y1="71.5562" x2="165.653" y2="57.2759" gradientUnits="userSpaceOnUse">
<stop stop-color="#D6E2FE"/>
<stop offset="1" stop-color="white"/>
</linearGradient>
<linearGradient id="paint41_linear_956_3" x1="146.807" y1="71.241" x2="167.355" y2="78.1889" gradientUnits="userSpaceOnUse">
<stop stop-color="#D6E2FE"/>
<stop offset="1" stop-color="white"/>
</linearGradient>
<linearGradient id="paint42_linear_956_3" x1="136.734" y1="73.4206" x2="145.048" y2="45.3694" gradientUnits="userSpaceOnUse">
<stop stop-color="#D6E2FE"/>
<stop offset="1" stop-color="white"/>
</linearGradient>
<linearGradient id="paint43_linear_956_3" x1="136.103" y1="89.8027" x2="126.732" y2="60.0985" gradientUnits="userSpaceOnUse">
<stop stop-color="#D6E2FE"/>
<stop offset="1" stop-color="white"/>
</linearGradient>
<linearGradient id="paint44_linear_956_3" x1="131.56" y1="79.1778" x2="156.282" y2="89.5551" gradientUnits="userSpaceOnUse">
<stop stop-color="#D6E2FE"/>
<stop offset="1" stop-color="white"/>
</linearGradient>
<linearGradient id="paint45_linear_956_3" x1="92.5005" y1="188.419" x2="91.8429" y2="143.073" gradientUnits="userSpaceOnUse">
<stop stop-color="#D8E1EF"/>
<stop offset="1" stop-color="white"/>
</linearGradient>
<clipPath id="clip0_956_3">
<rect width="170" height="150.922" fill="white" transform="translate(5 15)"/>
</clipPath>
</defs>
</svg>
