<svg width="250" height="250" viewBox="0 0 250 250" fill="none" xmlns="http://www.w3.org/2000/svg">
<g clip-path="url(#clip0_951_469)">
<g filter="url(#filter0_d_951_469)">
<path d="M124.849 233.254C182.275 233.254 228.828 186.55 228.828 128.938C228.828 71.3256 182.275 24.6218 124.849 24.6218C67.4232 24.6218 20.8701 71.3256 20.8701 128.938C20.8701 186.55 67.4232 233.254 124.849 233.254Z" fill="url(#paint0_radial_951_469)"/>
</g>
<path d="M124.849 210.787C169.908 210.787 206.435 174.142 206.435 128.938C206.435 83.7336 169.908 47.0884 124.849 47.0884C79.7911 47.0884 43.2642 83.7336 43.2642 128.938C43.2642 174.142 79.7911 210.787 124.849 210.787Z" fill="url(#paint1_linear_951_469)"/>
<g filter="url(#filter1_d_951_469)">
<path d="M61.495 15.8333C83.9285 15.8333 102.12 62.5478 102.12 120.149C102.12 177.75 83.9285 224.465 61.495 224.465C39.0615 224.465 20.8701 177.75 20.8701 120.149C20.8701 62.5478 39.0615 15.8333 61.495 15.8333Z" fill="url(#paint2_radial_951_469)"/>
<path d="M61.495 15.8333H79.6667C102.1 15.8333 120.292 62.5478 120.292 120.149C120.292 177.75 102.1 224.465 79.6667 224.465H61.495C83.9285 224.465 102.12 177.75 102.12 120.149C102.12 62.5478 83.9285 15.8333 61.495 15.8333Z" fill="url(#paint3_radial_951_469)"/>
<path d="M128.144 120.169C128.144 177.79 109.953 224.485 87.4996 224.485H69.3477C91.7811 224.485 109.973 177.79 109.973 120.169C109.973 62.5478 91.7811 15.8333 69.3477 15.8333H87.4996C109.953 15.8333 128.144 62.5478 128.144 120.169Z" fill="#1A325A"/>
<path d="M128.144 120.169C128.144 177.79 109.953 224.485 87.4996 224.485H78.5026C100.936 224.485 119.127 177.79 119.127 120.169C119.127 62.5478 100.936 15.8333 78.5026 15.8333H87.4996C109.953 15.8333 128.144 62.5478 128.144 120.169Z" fill="url(#paint4_radial_951_469)"/>
<path d="M45.5725 106.55H52.8333C52.7544 106.827 52.6952 107.105 52.636 107.382H45.3752C45.4344 107.105 45.5134 106.827 45.5725 106.55Z" fill="#417A97"/>
<path d="M45.3753 107.362H52.6361C52.5769 107.639 52.498 107.936 52.4388 108.233H45.178C45.2372 107.936 45.3161 107.659 45.3753 107.362Z" fill="#437E9C"/>
<path d="M45.1779 108.233H52.4387C52.3795 108.51 52.3203 108.807 52.2612 109.104H45.0004C45.0596 108.807 45.1187 108.53 45.1779 108.233Z" fill="#4582A0"/>
<path d="M45.0004 109.104H52.2612C52.202 109.381 52.1428 109.678 52.1033 109.975H44.8425C44.9017 109.678 44.9412 109.401 45.0004 109.104Z" fill="#4785A4"/>
<path d="M44.8228 109.955H52.0836C52.0244 110.232 51.9849 110.529 51.9455 110.806H44.6847C44.7242 110.509 44.7833 110.232 44.8228 109.955Z" fill="#4989A8"/>
<path d="M44.6847 110.826H51.9455C51.906 111.103 51.8665 111.38 51.8271 111.657H44.5663C44.6057 111.38 44.6452 111.103 44.6847 110.826Z" fill="#4A8CAD"/>
<path d="M44.5663 111.657H51.8271C51.7876 111.915 51.7482 112.192 51.7284 112.449H44.4677C44.5071 112.172 44.5466 111.915 44.5663 111.657Z" fill="#4C90B1"/>
<path d="M44.4479 112.449H51.7087C51.6692 112.706 51.6495 112.944 51.61 113.201H44.3492C44.369 112.944 44.4084 112.706 44.4479 112.449Z" fill="#4E93B5"/>
<path d="M44.369 113.201H51.6297C51.61 113.439 51.5705 113.656 51.5508 113.894H44.29C44.3098 113.656 44.3492 113.419 44.369 113.201Z" fill="#5097BA"/>
<path d="M44.29 113.894H51.5508C51.5311 114.112 51.5114 114.33 51.4916 114.547H44.2308C44.2506 114.33 44.2703 114.112 44.29 113.894Z" fill="#529ABE"/>
<path d="M44.2308 114.547H51.4916C51.4916 114.745 51.4521 114.943 51.4324 115.141H44.1716C44.1716 114.943 44.2111 114.745 44.2308 114.547Z" fill="#549EC2"/>
<path d="M44.1717 115.141H51.4324C51.4324 115.319 51.4127 115.497 51.393 115.695H44.1322C44.1322 115.517 44.1519 115.319 44.1717 115.141Z" fill="#56A1C7"/>
<path d="M44.1322 115.695H51.393C51.393 115.873 51.3733 116.032 51.3536 116.21H44.0928C44.0928 116.032 44.1125 115.873 44.1322 115.695Z" fill="#57A4CB"/>
<path d="M44.0927 116.19H51.3535C51.3535 116.349 51.3338 116.507 51.3338 116.665H44.073C44.073 116.507 44.073 116.349 44.0927 116.19Z" fill="#59A8CF"/>
<path d="M44.0731 116.685H51.3339C51.3339 116.843 51.3339 116.982 51.3141 117.14H44.0533C44.0533 116.982 44.0533 116.843 44.0731 116.685Z" fill="#5BABD4"/>
<path d="M44.0336 117.14H51.2944C51.2944 117.279 51.2944 117.417 51.2944 117.576H44.0336C44.0336 117.437 44.0336 117.298 44.0336 117.14Z" fill="#5DAFD8"/>
<path d="M44.0138 117.576H51.2746C51.2746 117.714 51.2746 117.853 51.2746 117.991H44.0138C44.0138 117.853 44.0138 117.714 44.0138 117.576Z" fill="#70B9DD"/>
<path d="M44.0138 117.991H51.2746C51.2746 118.13 51.2746 118.269 51.2746 118.387H44.0138C44.0138 118.249 44.0138 118.11 44.0138 117.991Z" fill="#78BDDF"/>
<path d="M43.9941 118.387H51.2549C51.2549 118.526 51.2549 118.645 51.2549 118.783H43.9941C43.9941 118.645 43.9941 118.526 43.9941 118.387Z" fill="#7FC0E0"/>
<path d="M43.9744 118.783H51.2352C51.2352 118.902 51.2352 119.041 51.2352 119.179H43.9744C43.9744 119.041 43.9744 118.922 43.9744 118.783Z" fill="#84C2E1"/>
<path d="M43.9744 119.179H51.2352C51.2352 119.318 51.2352 119.436 51.2352 119.575H43.9744C43.9744 119.436 43.9744 119.318 43.9744 119.179Z" fill="#88C4E2"/>
<path d="M43.9744 119.555H51.2352C51.2352 119.674 51.2352 119.812 51.2352 119.951H43.9744C43.9744 119.812 43.9744 119.694 43.9744 119.555Z" fill="#8DC7E3"/>
<path d="M43.9744 119.951H51.2352V120.347H43.9744V119.951Z" fill="#90C8E4"/>
<path d="M43.9744 120.347H51.2352C51.2352 120.485 51.2352 120.624 51.2352 120.763H43.9744C43.9744 120.624 43.9744 120.485 43.9744 120.347Z" fill="#94CAE5"/>
<path d="M43.9744 120.763H51.2352C51.2352 120.901 51.2352 121.04 51.2352 121.178H43.9744C43.9744 121.04 43.9744 120.901 43.9744 120.763Z" fill="#97CCE6"/>
<path d="M43.9744 121.178H51.2352C51.2352 121.317 51.2352 121.455 51.2352 121.594H43.9744C43.9744 121.455 43.9744 121.317 43.9744 121.178Z" fill="#9ACDE7"/>
<path d="M43.9744 121.594H51.2352C51.2352 121.733 51.2352 121.871 51.2352 122.01H43.9744C43.9744 121.871 43.9744 121.733 43.9744 121.594Z" fill="#9DCFE8"/>
<path d="M43.9941 122.03H51.2549C51.2549 122.227 51.2549 122.445 51.2747 122.643H44.0139C44.0139 122.445 44.0139 122.227 43.9941 122.03Z" fill="#A0D0E8"/>
<path d="M44.0138 122.643H51.2746C51.2746 122.841 51.2746 123.059 51.2943 123.257H44.0335C44.0335 123.059 44.0335 122.841 44.0138 122.643Z" fill="#A3D2E9"/>
<path d="M44.0336 123.257H51.2944C51.2944 123.573 51.3338 123.89 51.3535 124.207H44.0928C44.073 123.89 44.0533 123.573 44.0336 123.257Z" fill="#A6D3EA"/>
<path d="M44.0928 124.207H51.3536C51.393 124.82 51.4325 125.434 51.4917 126.028H44.2309C44.1717 125.434 44.1322 124.82 44.0928 124.207Z" fill="#A8D4EA"/>
<path d="M44.2308 126.028H51.4916C51.5311 126.404 51.5705 126.78 51.61 127.136H44.3492C44.3098 126.76 44.2703 126.404 44.2308 126.028Z" fill="#A6D3EA"/>
<path d="M44.3492 127.136H51.61C51.6298 127.314 51.6495 127.512 51.6692 127.69H44.4084C44.3887 127.512 44.369 127.314 44.3492 127.136Z" fill="#A3D2E9"/>
<path d="M44.4084 127.691H51.6692C51.689 127.869 51.7087 128.067 51.7482 128.245H44.4874C44.4676 128.067 44.4479 127.889 44.4084 127.691Z" fill="#A0D0E8"/>
<path d="M44.4873 128.245H51.7481C51.7678 128.423 51.7876 128.601 51.827 128.779H44.5662C44.5465 128.601 44.507 128.423 44.4873 128.245Z" fill="#9DCFE8"/>
<path d="M44.5663 128.779H51.8271C51.8468 128.938 51.8665 129.076 51.8863 129.235H44.6255C44.6057 129.076 44.586 128.938 44.5663 128.779Z" fill="#9ACDE7"/>
<path d="M44.6255 129.235H51.8863C51.906 129.393 51.9257 129.532 51.9652 129.69H44.7044C44.6847 129.532 44.6649 129.393 44.6255 129.235Z" fill="#97CCE6"/>
<path d="M44.7043 129.69H51.9651C51.9849 129.848 52.0046 129.987 52.044 130.145H44.7833C44.7635 129.987 44.7241 129.848 44.7043 129.69Z" fill="#94CAE5"/>
<path d="M44.7635 130.145H52.0243C52.0441 130.303 52.0835 130.462 52.1033 130.62H44.8425C44.8227 130.462 44.7833 130.303 44.7635 130.145Z" fill="#90C8E4"/>
<path d="M44.8622 130.6H52.123C52.1427 130.759 52.1822 130.917 52.2019 131.075H44.9411C44.9016 130.917 44.8819 130.759 44.8622 130.6Z" fill="#8DC7E3"/>
<path d="M44.9412 131.075H52.2019C52.2414 131.234 52.2611 131.392 52.3006 131.55H45.0398C45.0004 131.392 44.9806 131.234 44.9412 131.075Z" fill="#88C4E2"/>
<path d="M45.0398 131.551H52.3006C52.34 131.729 52.3795 131.887 52.3992 132.065H45.1384C45.099 131.887 45.0595 131.729 45.0398 131.551Z" fill="#84C2E1"/>
<path d="M45.1384 132.065H52.3992C52.4387 132.263 52.4781 132.441 52.5176 132.639H45.2568C45.2174 132.441 45.1779 132.263 45.1384 132.065Z" fill="#7FC0E0"/>
<path d="M45.2568 132.639H52.5176C52.5571 132.837 52.5965 133.015 52.6557 133.193H45.3949C45.3555 133.015 45.316 132.817 45.2568 132.639Z" fill="#78BDDF"/>
<path d="M45.3949 133.193H52.6557C52.7149 133.431 52.7741 133.668 52.8333 133.886H45.5725C45.5133 133.649 45.4541 133.431 45.3949 133.193Z" fill="#70B9DD"/>
<path d="M45.5725 133.906H52.8333C52.8925 134.144 52.9517 134.381 53.0306 134.619H45.7698C45.7106 134.381 45.6317 134.144 45.5725 133.906Z" fill="#5DAFD8"/>
<path d="M45.7698 134.619H53.0306C53.1095 134.916 53.1884 135.193 53.2871 135.47H46.0263C45.9473 135.193 45.8684 134.916 45.7698 134.619Z" fill="#5BABD4"/>
<path d="M46.0066 135.45H53.2674C53.366 135.747 53.4449 136.044 53.5436 136.321H46.2828C46.1842 136.044 46.1052 135.747 46.0066 135.45Z" fill="#59A8CF"/>
<path d="M46.2828 136.321H53.5436C53.6423 136.618 53.7409 136.915 53.8593 137.212H46.5985C46.4999 136.915 46.3815 136.618 46.2828 136.321Z" fill="#57A4CB"/>
<path d="M46.5985 137.231H53.8593C53.9579 137.528 54.0763 137.805 54.1947 138.083H46.9339C46.8155 137.805 46.7169 137.528 46.5985 137.231Z" fill="#56A1C7"/>
<path d="M46.934 138.083H54.1947C54.3131 138.36 54.4118 138.617 54.5302 138.874H47.2694C47.151 138.617 47.0523 138.36 46.934 138.083Z" fill="#549EC2"/>
<path d="M47.2693 138.874H54.5301C54.6485 139.132 54.7471 139.369 54.8655 139.607H47.6047C47.4863 139.369 47.3679 139.132 47.2693 138.874Z" fill="#529ABE"/>
<path d="M47.6047 139.607H54.8655C54.9839 139.824 55.0826 140.042 55.2009 140.26H47.9402C47.8218 140.042 47.7231 139.824 47.6047 139.607Z" fill="#5097BA"/>
<path d="M47.9402 140.26H55.201C55.3194 140.458 55.418 140.676 55.5364 140.854H48.2756C48.1572 140.656 48.0586 140.458 47.9402 140.26Z" fill="#4E93B5"/>
<path d="M48.2756 140.854H55.5364C55.6548 141.052 55.7535 141.23 55.8718 141.408H48.6111C48.4927 141.23 48.3743 141.052 48.2756 140.854Z" fill="#4C90B1"/>
<path d="M48.611 141.408H55.8717C55.9901 141.586 56.0888 141.744 56.2072 141.903H48.9464C48.828 141.744 48.7293 141.566 48.611 141.408Z" fill="#4A8CAD"/>
<path d="M48.9464 141.923H56.2072C56.3256 142.081 56.444 142.239 56.5426 142.398H49.2818C49.1634 142.239 49.0451 142.101 48.9464 141.923Z" fill="#4989A8"/>
<path d="M49.3015 142.378H56.5623C56.6807 142.516 56.7991 142.675 56.9174 142.813H49.6567C49.5383 142.675 49.4199 142.536 49.3015 142.378" fill="#4785A4"/>
<path d="M49.637 142.813H56.8977C57.0161 142.952 57.1345 143.091 57.2529 143.209H49.9921C49.8737 143.091 49.7553 142.952 49.637 142.813Z" fill="#4582A0"/>
<path d="M49.9922 143.209H57.253C57.3714 143.328 57.4897 143.447 57.6081 143.566H50.3473C50.229 143.447 50.1106 143.328 49.9922 143.209Z" fill="#437E9C"/>
<path d="M50.3671 143.566H57.6278C57.7462 143.684 57.8843 143.783 58.0027 143.882H50.7419C50.6236 143.783 50.4854 143.665 50.3671 143.566Z" fill="#417A97"/>
<path d="M50.7419 143.882H58.0027C58.1211 143.981 58.2592 144.08 58.3973 144.179H51.1366C50.9984 144.08 50.8801 144.001 50.7419 143.882Z" fill="#3F7793"/>
<path d="M51.1168 144.179H58.3776C58.5157 144.278 58.6538 144.357 58.7919 144.437H51.5312C51.393 144.357 51.2549 144.278 51.1168 144.179Z" fill="#3D748F"/>
<path d="M51.5311 144.437H58.7919C58.7919 144.437 58.9103 144.496 58.9498 144.535H51.689C51.689 144.535 51.5706 144.476 51.5311 144.437Z" fill="#3C708A"/>
<path d="M54.2144 111.677H53.0109C53.2082 111.598 53.4055 111.539 53.6225 111.539C53.8198 111.539 54.0368 111.598 54.2144 111.677Z" fill="#59A7CE"/>
<path d="M53.6225 95.426C51.8073 95.426 50.1105 96.7127 48.6702 98.9494C48.5518 99.1474 48.4137 99.3453 48.2953 99.5432H55.5561C55.6745 99.3255 55.7928 99.1276 55.931 98.9494C57.3713 96.7127 59.0681 95.426 60.8833 95.426H53.6225Z" fill="url(#paint5_linear_951_469)"/>
<path d="M54.2144 111.677H53.0109C53.2082 111.598 53.4055 111.539 53.6225 111.539C53.8198 111.539 54.0368 111.598 54.2144 111.677Z" fill="#2F596E"/>
<path d="M53.6818 111.539H60.9425C60.9425 111.539 61.0807 111.539 61.1399 111.558H53.8791C53.8791 111.558 53.741 111.558 53.6818 111.539Z" fill="#36667D"/>
<path d="M53.879 111.578H61.1398C61.1398 111.578 61.2582 111.598 61.3174 111.618H54.0566C54.0566 111.618 53.9382 111.578 53.879 111.578Z" fill="#386982"/>
<path d="M54.0566 111.618H61.3174C61.3174 111.618 61.4161 111.657 61.4753 111.677H54.2145C54.2145 111.677 54.1158 111.637 54.0566 111.618Z" fill="#3A6D86"/>
<path d="M56.957 118.665H64.2178C64.2178 118.665 64.2178 118.823 64.2178 118.922H56.957C56.957 118.922 56.957 118.764 56.957 118.665Z" fill="#A8D4EA"/>
<path d="M56.957 118.922H64.2178C64.2178 118.922 64.2178 119.12 64.2178 119.199H56.957C56.957 119.199 56.957 119.001 56.957 118.922Z" fill="#A6D3EA"/>
<path d="M56.9767 119.199H64.2375V119.417H56.9767V119.199" fill="#A3D2E9"/>
<path d="M56.9965 119.417H64.2572V119.595H56.9965V119.417" fill="#A0D0E8"/>
<path d="M56.9965 119.595H64.2572V119.753H56.9965V119.595" fill="#9DCFE8"/>
<path d="M56.9965 119.753H64.2572V119.892H56.9965V119.753" fill="#9ACDE7"/>
<path d="M56.9965 119.912H64.2572V120.05H56.9965V119.912" fill="#97CCE6"/>
<path d="M56.9965 120.05H64.2572V120.189H56.9965V120.05" fill="#94CAE5"/>
<path d="M56.9965 120.189H64.2572V120.327H56.9965V120.189" fill="#90C8E4"/>
<path d="M56.9965 120.327H64.2572V120.466H56.9965V120.327" fill="#8DC7E3"/>
<path d="M56.9965 120.446H64.2572V120.585H56.9965V120.446" fill="#88C4E2"/>
<path d="M56.9965 120.584H64.2572V120.723H56.9965V120.584" fill="#84C2E1"/>
<path d="M56.9965 120.723H64.2572V120.862H56.9965V120.723" fill="#7FC0E0"/>
<path d="M56.9965 120.862H64.2572V121H56.9965V120.862" fill="#78BDDF"/>
<path d="M56.9965 121.02H64.2572V121.159H56.9965V121.02" fill="#70B9DD"/>
<path d="M56.9768 121.159H64.2375V121.317H56.957V121.159" fill="#5DAFD8"/>
<path d="M56.9768 121.317H64.2375V121.475H56.957V121.317" fill="#5BABD4"/>
<path d="M56.9768 121.475H64.2375V121.653H56.957V121.475" fill="#59A8CF"/>
<path d="M56.957 121.634H64.2178V121.812H56.9373V121.634" fill="#57A4CB"/>
<path d="M56.9373 121.812H64.1981V122.01H56.9176V121.812" fill="#56A1C7"/>
<path d="M56.9373 122.01H64.1981V122.228H56.9176V122.01" fill="#549EC2"/>
<path d="M56.9176 122.228H64.1783C64.1783 122.228 64.1783 122.386 64.1586 122.445H56.8978C56.8978 122.445 56.8978 122.307 56.9176 122.228" fill="#529ABE"/>
<path d="M56.8978 122.445H64.1586C64.1586 122.445 64.1586 122.604 64.1388 122.683H56.8781C56.8781 122.683 56.8781 122.524 56.8978 122.445" fill="#5097BA"/>
<path d="M56.8583 122.683H64.1191C64.1191 122.683 64.0994 122.861 64.0796 122.94H56.8188C56.8188 122.94 56.8386 122.762 56.8583 122.683Z" fill="#4E93B5"/>
<path d="M56.8387 122.96H64.0994C64.0994 122.96 64.0797 123.138 64.06 123.237H56.7992C56.7992 123.237 56.8189 123.059 56.8387 122.96Z" fill="#4C90B1"/>
<path d="M56.7992 123.237H64.06C64.06 123.237 64.0403 123.435 64.0205 123.534H56.7598C56.7598 123.534 56.7992 123.336 56.7992 123.237" fill="#4A8CAD"/>
<path d="M56.7598 123.514H64.0205C64.0205 123.613 63.9811 123.712 63.9613 123.811H56.7006C56.7006 123.811 56.74 123.613 56.7598 123.514" fill="#4989A8"/>
<path d="M56.7005 123.811H63.9613C63.9613 123.91 63.9219 124.009 63.9021 124.108H56.6414C56.6414 124.009 56.6808 123.91 56.7005 123.811" fill="#4785A4"/>
<path d="M56.6413 124.128H63.9021C63.8824 124.227 63.8627 124.326 63.8429 124.425H56.5822C56.6019 124.326 56.6216 124.227 56.6413 124.128" fill="#4582A0"/>
<path d="M56.5821 124.425H63.8429C63.8232 124.524 63.8035 124.623 63.7837 124.722H56.5229C56.5427 124.623 56.5624 124.524 56.5821 124.425Z" fill="#437E9C"/>
<path d="M56.5229 124.722H63.7837C63.7639 124.821 63.7442 124.92 63.7048 125.019H56.444C56.444 125.019 56.5032 124.821 56.5229 124.722Z" fill="#417A97"/>
<path d="M56.444 125.019H63.7048C63.6851 125.118 63.6456 125.217 63.6259 125.315H56.3651C56.3848 125.217 56.4243 125.118 56.444 125.019Z" fill="#3F7793"/>
<path d="M56.3651 125.335H63.6259C63.6062 125.434 63.5667 125.533 63.5273 125.632H56.2665C56.3059 125.533 56.3257 125.434 56.3651 125.335" fill="#3D748F"/>
<path d="M56.2665 125.632H63.5273C63.4878 125.731 63.4681 125.83 63.4286 125.929H56.1678C56.2073 125.83 56.227 125.731 56.2665 125.632" fill="#3C708A"/>
<path d="M56.1678 125.929H63.4286C63.3891 126.028 63.3497 126.147 63.3102 126.246H56.0494C56.0889 126.147 56.1284 126.048 56.1678 125.929" fill="#3A6D86"/>
<path d="M56.0494 126.246H63.3102C63.2707 126.365 63.2313 126.464 63.1918 126.563H55.931C55.9705 126.464 56.01 126.345 56.0494 126.246" fill="#386982"/>
<path d="M55.931 126.562H63.1918C63.1524 126.681 63.0932 126.78 63.034 126.899H55.7732C55.8324 126.8 55.8718 126.681 55.931 126.562" fill="#36667D"/>
<path d="M55.7732 126.899H63.0339C62.9747 127.018 62.9156 127.136 62.8564 127.255H55.5956C55.6548 127.136 55.714 127.018 55.7732 126.899Z" fill="#346279"/>
<path d="M55.5956 127.255H62.8564L62.8169 127.335H55.5562L55.5956 127.255" fill="#325F75"/>
<path d="M70.2749 103.106H65.3818C65.1056 101.879 64.7899 100.672 64.4742 99.5433C64.119 98.3359 63.7442 97.1878 63.3298 96.1189H67.5521L70.2749 103.106V103.106Z" fill="#1A325A"/>
<path d="M66.0328 106.531H68.9332L66.7629 112.133C66.5853 110.193 66.3485 108.312 66.0328 106.531Z" fill="#1A325A"/>
<path d="M66.7827 112.113C66.6051 110.173 66.3684 108.292 66.0527 106.511C65.8554 105.323 65.6383 104.195 65.4016 103.086C65.1254 101.859 64.8097 100.652 64.494 99.5234C64.1388 98.316 63.764 97.1679 63.3496 96.099C60.9031 89.5669 57.4502 85.4893 53.6423 85.4893C46.1842 85.4893 40.127 101.067 40.127 120.208C40.127 139.349 46.1842 154.908 53.6423 154.908C56.1875 154.908 58.5551 153.087 60.5874 149.959C61.3963 148.712 62.1461 147.247 62.8366 145.604C65.5002 139.27 67.1576 130.224 67.1576 120.208C67.1576 117.417 67.0195 114.706 66.7827 112.113V112.113ZM51.7087 144.496C47.3088 142.2 43.9744 132.184 43.9744 120.208C43.9744 115.141 44.5663 110.45 45.5923 106.511L50.3078 118.645C50.2881 119.159 50.2684 119.674 50.2684 120.208C50.2684 123.158 50.8406 125.751 51.7087 127.315V144.496ZM53.6423 111.519C53.4252 111.519 53.2279 111.578 53.0306 111.657L51.0379 106.511L48.8478 100.869L48.3151 99.5234C49.5975 97.3262 51.0971 95.901 52.7347 95.525C53.0306 95.4458 53.3266 95.4062 53.6423 95.4062C53.7607 95.4062 53.879 95.4062 53.9974 95.4458C55.8323 95.5843 57.5292 97.0689 58.9695 99.5234L57.2727 103.878L54.2342 111.657C54.0566 111.578 53.8396 111.519 53.6423 111.519V111.519ZM63.2707 121.099C63.251 123.376 63.0931 125.573 62.8366 127.631C61.8107 136.163 59.0287 142.695 55.5759 144.496V127.315C56.0691 126.404 56.4834 125.157 56.7399 123.692C56.8189 123.237 56.8781 122.742 56.9175 122.227C56.9767 121.574 57.0162 120.901 57.0162 120.208C57.0162 119.674 56.9964 119.159 56.957 118.645L57.7067 116.705L59.0681 113.221L59.6798 111.657L59.9955 110.885L61.6923 106.511C62.5999 110.014 63.1721 114.171 63.2707 118.645C63.2904 119.159 63.2904 119.674 63.2904 120.208C63.2904 120.505 63.2904 120.802 63.2707 121.099Z" fill="url(#paint6_radial_951_469)"/>
<path d="M57.2727 103.878L54.2342 111.657C54.0566 111.578 53.8396 111.519 53.6423 111.519C53.4252 111.519 53.2279 111.578 53.0306 111.657L51.0379 106.511L48.8478 100.869L48.3151 99.5234H55.5758L57.2727 103.878Z" fill="url(#paint7_linear_951_469)"/>
<path d="M51.7087 127.315V144.496C47.3088 142.2 43.9744 132.184 43.9744 120.208C43.9744 115.141 44.5663 110.45 45.5923 106.511L50.3078 118.645C50.2881 119.159 50.2684 119.674 50.2684 120.208C50.2684 123.158 50.8405 125.751 51.7087 127.315V127.315Z" fill="url(#paint8_linear_951_469)"/>
<path d="M62.8169 127.334V127.651C61.791 136.183 59.009 142.715 55.5562 144.516V127.334H62.8169V127.334Z" fill="url(#paint9_linear_951_469)"/>
<path d="M63.2707 120.228C63.2707 120.525 63.2707 120.822 63.251 121.119C63.2313 123.395 63.0734 125.593 62.8169 127.651V127.334H55.5562C56.0494 126.424 56.4638 125.177 56.7202 123.712C56.7992 123.257 56.8584 122.762 56.8978 122.247C56.957 121.594 56.9965 120.921 56.9965 120.228C56.9965 119.694 56.9965 119.179 56.9373 118.665H63.251C63.2707 119.179 63.2707 119.694 63.2707 120.228Z" fill="url(#paint10_linear_951_469)"/>
<path d="M63.251 118.664H56.9373L57.687 116.725L59.0484 113.241L59.66 111.677L59.9757 110.905L61.6725 106.531C62.5801 110.034 63.1523 114.191 63.251 118.664V118.664Z" fill="url(#paint11_linear_951_469)"/>
<path d="M74.3986 120.05C74.3986 119.852 74.3986 119.654 74.3986 119.456C74.3986 119.258 74.3986 119.06 74.3986 118.862C74.3986 118.664 74.3986 118.467 74.3986 118.269C74.3986 118.071 74.3986 117.873 74.3986 117.675C74.3986 117.398 74.3986 117.14 74.3789 116.863V116.645C74.3591 116.388 74.3394 116.131 74.3394 115.854C74.3394 115.517 74.2999 115.181 74.2802 114.864C74.2802 114.567 74.2407 114.27 74.2013 113.973C74.1618 113.498 74.1224 113.043 74.0829 112.568C74.0632 112.311 74.0434 112.033 74.0237 111.756C73.9842 111.42 73.9645 111.103 73.9251 110.767C73.8856 110.489 73.8659 110.212 73.8264 109.955V109.797C73.7672 109.52 73.7475 109.242 73.708 108.965C73.6686 108.748 73.6488 108.53 73.6094 108.292C73.5699 108.055 73.5502 107.857 73.5107 107.639C73.4713 107.421 73.4515 107.204 73.4121 106.986C73.4121 106.907 73.3923 106.827 73.3726 106.748V106.689C73.3331 106.57 73.3134 106.451 73.2937 106.333C73.2542 106.115 73.2148 105.897 73.1753 105.679C73.1358 105.462 73.0964 105.244 73.0569 105.026C73.0175 104.808 72.978 104.591 72.9385 104.393C72.8991 104.155 72.8399 103.938 72.8004 103.7V103.621C72.7412 103.363 72.682 103.086 72.6228 102.829C72.5637 102.572 72.5045 102.314 72.4453 102.057C72.3664 101.721 72.2874 101.384 72.1888 101.067C72.1888 101.008 72.1493 100.949 72.1296 100.889L72.0901 100.751C72.0309 100.513 71.9717 100.295 71.9126 100.058C71.7942 99.662 71.6955 99.2859 71.5771 98.89C71.5179 98.692 71.4588 98.4941 71.3996 98.2962C71.3798 98.1972 71.3404 98.118 71.3206 98.019C71.2812 97.9003 71.2417 97.7815 71.2023 97.6627C71.0641 97.2273 70.9063 96.8116 70.7682 96.3959C70.6893 96.198 70.6301 96.0198 70.5512 95.8219C70.5117 95.7229 70.4722 95.6239 70.4328 95.525C70.3933 95.4062 70.3539 95.3072 70.2947 95.1885C70.1368 94.8124 69.979 94.4363 69.8211 94.08C69.7422 93.9018 69.6633 93.7237 69.5646 93.5455C69.5252 93.4664 69.5054 93.407 69.466 93.3278C69.4265 93.2486 69.3871 93.1496 69.3476 93.0705C69.1898 92.7538 69.0319 92.4371 68.8741 92.1401C68.7557 91.9224 68.6373 91.7047 68.4992 91.4869L68.44 91.388L68.4005 91.3088C68.2427 91.0317 68.0849 90.7743 67.927 90.5368C67.7692 90.2993 67.6113 90.0617 67.4535 89.8242C67.4338 89.7846 67.3943 89.7648 67.3746 89.7252C67.3548 89.6857 67.3351 89.6659 67.2956 89.6263C67.1773 89.4679 67.0786 89.3096 66.9602 89.171C66.8024 88.9731 66.6445 88.7553 66.467 88.5772C66.388 88.4782 66.2894 88.3792 66.2105 88.2803L66.1118 88.1813C66.1118 88.1813 66.0132 88.0823 65.9737 88.0229C65.7961 87.8448 65.6383 87.6864 65.4607 87.5281C65.2831 87.3697 65.1056 87.2114 64.928 87.0728V87.0332C64.7307 86.8947 64.5729 86.7759 64.3953 86.6571C64.198 86.5186 64.0204 86.3998 63.8231 86.3008C63.7639 86.281 63.7244 86.2612 63.6652 86.2217C63.6258 86.2019 63.5863 86.1821 63.5469 86.1623C63.4482 86.1029 63.3298 86.0435 63.2312 86.0039C63.0141 85.9049 62.7971 85.8258 62.5801 85.7466C62.5012 85.7268 62.442 85.707 62.363 85.6872C62.3039 85.6872 62.2447 85.6674 62.1855 85.6476C62.0868 85.6278 61.9882 85.5882 61.8698 85.5684C61.6133 85.5288 61.3371 85.4893 61.0806 85.4893C61.0214 85.4893 60.9622 85.4893 60.903 85.4893H53.6422C54.0763 85.4893 54.5103 85.5486 54.9247 85.6476C54.9839 85.6476 55.0431 85.6674 55.1023 85.6872C55.4969 85.806 55.8915 85.9445 56.2861 86.1623C56.3255 86.1821 56.365 86.2019 56.4045 86.2217C56.8188 86.4394 57.2331 86.7165 57.6277 87.0332H57.6475C58.0618 87.3697 58.4564 87.7458 58.8313 88.1813C58.8708 88.2209 58.8905 88.2605 58.93 88.2803C59.3048 88.6959 59.66 89.1314 60.0151 89.6263C60.0349 89.6659 60.0546 89.6857 60.094 89.7252C60.4689 90.2399 60.8241 90.7941 61.1595 91.388L61.2187 91.4869C61.5541 92.061 61.8698 92.6746 62.1855 93.3278C62.2249 93.407 62.2447 93.4664 62.2841 93.5455C62.5801 94.1789 62.8563 94.8322 63.1325 95.5448C63.172 95.6437 63.2115 95.7427 63.2509 95.8417C63.5271 96.5345 63.7836 97.2669 64.0204 98.019C64.0401 98.118 64.0796 98.1972 64.0993 98.2962C64.3558 99.0879 64.5926 99.8995 64.8096 100.731L64.8491 100.869C65.0858 101.78 65.3029 102.71 65.5199 103.66C65.7172 104.65 65.9145 105.64 66.0724 106.669V106.729C66.2499 107.758 66.4078 108.787 66.5262 109.856V109.915C66.6445 110.767 66.7235 111.638 66.8024 112.528C66.8418 112.984 66.8813 113.459 66.9208 113.934C66.98 114.805 67.0391 115.695 67.0786 116.606V116.685C67.1181 117.833 67.1575 119.001 67.1575 120.189C67.1575 121.376 67.1378 122.544 67.0786 123.712V123.752C67.0391 124.9 66.9602 126.028 66.8813 127.136V127.196C66.7827 128.284 66.684 129.373 66.5459 130.422V130.561C66.4078 131.59 66.2499 132.6 66.0921 133.589L66.0526 133.768C65.8948 134.737 65.7172 135.668 65.5199 136.598L65.4804 136.756C65.2831 137.707 65.0661 138.617 64.8293 139.508L64.7899 139.646C64.5728 140.498 64.3164 141.309 64.0796 142.101C64.0599 142.2 64.0204 142.279 64.0007 142.378C63.7639 143.13 63.5074 143.863 63.2312 144.555C63.1917 144.654 63.1523 144.773 63.1128 144.872C62.8366 145.585 62.5406 146.258 62.2447 146.911C62.2447 146.951 62.2052 146.97 62.2052 147.01C61.929 147.584 61.6528 148.118 61.3568 148.633C61.2187 148.89 61.0608 149.128 60.9227 149.365C60.7057 149.742 60.4689 150.098 60.2322 150.434C60.1532 150.553 60.0546 150.672 59.9757 150.791C59.6402 151.246 59.2851 151.701 58.93 152.077C58.8905 152.117 58.851 152.156 58.7918 152.216C58.4762 152.552 58.1407 152.869 57.8053 153.146C57.7067 153.225 57.608 153.304 57.5094 153.384C57.1345 153.681 56.7596 153.938 56.365 154.136C56.3453 154.136 56.3058 154.156 56.2861 154.175C55.9112 154.354 55.5561 154.512 55.1812 154.611C55.0825 154.65 54.9839 154.67 54.8655 154.69C54.4512 154.789 54.0566 154.848 53.6422 154.848H60.903C61.3173 154.848 61.7317 154.789 62.1263 154.69C62.2249 154.67 62.3236 154.631 62.442 154.611C62.8168 154.492 63.1917 154.354 63.5469 154.175C63.5666 154.175 63.6061 154.156 63.6258 154.136C64.0204 153.938 64.3953 153.661 64.7702 153.384C64.8688 153.304 64.9675 153.225 65.0661 153.146C65.4015 152.869 65.7369 152.552 66.0526 152.216C66.0921 152.176 66.1316 152.137 66.1907 152.077C66.5459 151.681 66.901 151.246 67.2365 150.791C67.3154 150.672 67.414 150.553 67.4929 150.434C67.6113 150.276 67.71 150.137 67.8284 149.959C67.9467 149.761 68.0651 149.544 68.1835 149.346C68.3216 149.108 68.4795 148.871 68.6176 148.613C68.6768 148.494 68.736 148.415 68.7952 148.297C69.0122 147.881 69.2292 147.445 69.4463 146.99C69.4463 146.951 69.4857 146.931 69.4857 146.891C69.683 146.436 69.8803 146 70.0776 145.545C70.1763 145.327 70.2552 145.09 70.3539 144.852C70.3933 144.753 70.4328 144.635 70.4722 144.536C70.5117 144.437 70.5512 144.338 70.5906 144.239C70.7485 143.823 70.8866 143.407 71.0444 142.992C71.1233 142.774 71.1825 142.556 71.2615 142.358C71.2812 142.279 71.3206 142.18 71.3404 142.101C71.3798 142.002 71.3996 141.903 71.439 141.784C71.5574 141.388 71.6955 140.973 71.8139 140.557C71.8928 140.26 71.9915 139.943 72.0704 139.627L72.1099 139.488L72.1493 139.35C72.248 138.954 72.3466 138.538 72.4453 138.142C72.5439 137.746 72.6228 137.35 72.7215 136.935C72.7215 136.875 72.7412 136.796 72.761 136.737L72.8004 136.578C72.8596 136.301 72.9188 136.004 72.978 135.727C73.0569 135.331 73.1358 134.935 73.195 134.52C73.2345 134.262 73.274 134.005 73.3331 133.748L73.3726 133.57C73.3726 133.57 73.3923 133.411 73.4121 133.312C73.4713 132.936 73.5304 132.56 73.5896 132.164C73.6488 131.788 73.6883 131.392 73.7475 131.016C73.7672 130.858 73.7869 130.68 73.8067 130.521V130.383C73.8461 130.264 73.8461 130.145 73.8659 130.026C73.9053 129.69 73.9448 129.353 73.9842 129.017C74.0237 128.72 74.0434 128.423 74.0632 128.106C74.0829 127.849 74.1026 127.592 74.1224 127.315V127.057C74.1618 126.879 74.1618 126.701 74.1816 126.523C74.1816 126.265 74.221 125.988 74.2407 125.731C74.2407 125.533 74.2605 125.315 74.2802 125.117C74.2999 124.919 74.2999 124.702 74.3197 124.504C74.3197 124.306 74.3197 124.088 74.3394 123.89V123.633C74.3394 123.514 74.3591 123.395 74.3591 123.257C74.3591 123.059 74.3591 122.861 74.3591 122.683C74.3591 122.505 74.3591 122.326 74.3591 122.148C74.3591 121.97 74.3591 121.792 74.3591 121.614C74.3591 121.436 74.3591 121.258 74.3591 121.06C74.3591 120.862 74.3591 120.703 74.3591 120.505C74.3591 120.367 74.3591 120.248 74.3591 120.109V119.931L74.3986 120.05Z" fill="#1A325A"/>
</g>
</g>
<defs>
<filter id="filter0_d_951_469" x="14.8701" y="24.6218" width="227.958" height="232.632" filterUnits="userSpaceOnUse" color-interpolation-filters="sRGB">
<feFlood flood-opacity="0" result="BackgroundImageFix"/>
<feColorMatrix in="SourceAlpha" type="matrix" values="0 0 0 0 0 0 0 0 0 0 0 0 0 0 0 0 0 0 127 0" result="hardAlpha"/>
<feOffset dx="4" dy="14"/>
<feGaussianBlur stdDeviation="5"/>
<feColorMatrix type="matrix" values="0 0 0 0 0 0 0 0 0 0 0 0 0 0 0 0 0 0 0.07 0"/>
<feBlend mode="normal" in2="BackgroundImageFix" result="effect1_dropShadow_951_469"/>
<feBlend mode="normal" in="SourceGraphic" in2="effect1_dropShadow_951_469" result="shape"/>
</filter>
<filter id="filter1_d_951_469" x="16.8701" y="15.8333" width="123.274" height="229.652" filterUnits="userSpaceOnUse" color-interpolation-filters="sRGB">
<feFlood flood-opacity="0" result="BackgroundImageFix"/>
<feColorMatrix in="SourceAlpha" type="matrix" values="0 0 0 0 0 0 0 0 0 0 0 0 0 0 0 0 0 0 127 0" result="hardAlpha"/>
<feOffset dx="4" dy="13"/>
<feGaussianBlur stdDeviation="4"/>
<feColorMatrix type="matrix" values="0 0 0 0 0 0 0 0 0 0 0 0 0 0 0 0 0 0 0.02 0"/>
<feBlend mode="normal" in2="BackgroundImageFix" result="effect1_dropShadow_951_469"/>
<feBlend mode="normal" in="SourceGraphic" in2="effect1_dropShadow_951_469" result="shape"/>
</filter>
<radialGradient id="paint0_radial_951_469" cx="0" cy="0" r="1" gradientUnits="userSpaceOnUse" gradientTransform="translate(124.849 129.001) scale(120.099 148.2)">
<stop offset="0.31" stop-color="#A5B4C6"/>
<stop offset="0.44" stop-color="#B8C5D5"/>
<stop offset="0.61" stop-color="#CAD4E3"/>
<stop offset="0.78" stop-color="#D4DEEC"/>
<stop offset="0.99" stop-color="#D8E1EF"/>
</radialGradient>
<linearGradient id="paint1_linear_951_469" x1="43.2839" y1="128.938" x2="206.435" y2="128.938" gradientUnits="userSpaceOnUse">
<stop offset="0.26" stop-color="#1A325A"/>
<stop offset="1" stop-color="#12243F"/>
</linearGradient>
<radialGradient id="paint2_radial_951_469" cx="0" cy="0" r="1" gradientUnits="userSpaceOnUse" gradientTransform="translate(61.495 120.64) scale(78.9413 114.044)">
<stop offset="0.04" stop-color="white"/>
<stop offset="1" stop-color="#D8E1EF"/>
</radialGradient>
<radialGradient id="paint3_radial_951_469" cx="0" cy="0" r="1" gradientUnits="userSpaceOnUse" gradientTransform="translate(90.9119 120.299) rotate(-0.922979) scale(76.6724 112.304)">
<stop stop-color="#D8E1EF"/>
<stop offset="0.97" stop-color="#C0CCDD"/>
</radialGradient>
<radialGradient id="paint4_radial_951_469" cx="0" cy="0" r="1" gradientUnits="userSpaceOnUse" gradientTransform="translate(103.341 120.325) rotate(-0.922978) scale(75.5872 110.714)">
<stop stop-color="#D8E1EF"/>
<stop offset="0.97" stop-color="#C0CCDD"/>
</radialGradient>
<linearGradient id="paint5_linear_951_469" x1="48.2953" y1="97.4846" x2="60.8833" y2="97.4846" gradientUnits="userSpaceOnUse">
<stop stop-color="#C0CCDD"/>
<stop offset="0.1" stop-color="#B5C2D3"/>
<stop offset="0.36" stop-color="#9CADBC"/>
</linearGradient>
<radialGradient id="paint6_radial_951_469" cx="0" cy="0" r="1" gradientUnits="userSpaceOnUse" gradientTransform="translate(53.6423 120.674) scale(26.2612 42.4174)">
<stop offset="0.11" stop-color="white"/>
<stop offset="0.95" stop-color="#D8E1EF"/>
</radialGradient>
<linearGradient id="paint7_linear_951_469" x1="48.3151" y1="105.6" x2="77.2793" y2="105.6" gradientUnits="userSpaceOnUse">
<stop stop-color="#C0CCDD"/>
<stop offset="0.27" stop-color="#B5C2D3"/>
<stop offset="1" stop-color="#9CADBC"/>
</linearGradient>
<linearGradient id="paint8_linear_951_469" x1="43.9744" y1="125.513" x2="83.8889" y2="125.513" gradientUnits="userSpaceOnUse">
<stop stop-color="#DAE4EF"/>
<stop offset="0.3" stop-color="#B5C3D0"/>
<stop offset="0.54" stop-color="#9CADBC"/>
</linearGradient>
<linearGradient id="paint9_linear_951_469" x1="55.5562" y1="135.925" x2="87.5983" y2="135.925" gradientUnits="userSpaceOnUse">
<stop offset="0.01" stop-color="#CDD9E8"/>
<stop offset="0.46" stop-color="#B5C3D2"/>
<stop offset="1" stop-color="#9CADBC"/>
</linearGradient>
<linearGradient id="paint10_linear_951_469" x1="55.5562" y1="123.158" x2="62.1461" y2="123.158" gradientUnits="userSpaceOnUse">
<stop stop-color="#C0CCDD"/>
<stop offset="0.27" stop-color="#B5C2D3"/>
<stop offset="1" stop-color="#9CADBC"/>
</linearGradient>
<linearGradient id="paint11_linear_951_469" x1="56.9373" y1="112.588" x2="74.8722" y2="112.588" gradientUnits="userSpaceOnUse">
<stop stop-color="#CDD9E8"/>
<stop offset="0.45" stop-color="#B5C3D2"/>
<stop offset="1" stop-color="#9CADBC"/>
</linearGradient>
<clipPath id="clip0_951_469">
<rect width="250" height="250" fill="white"/>
</clipPath>
</defs>
</svg>
