<svg width="73" height="73" viewBox="0 0 73 73" fill="none" xmlns="http://www.w3.org/2000/svg">
<circle cx="29" cy="30.3999" r="29" fill="#2979FF" fill-opacity="0.2"/>
<circle cx="40.5" cy="43.8999" r="19.5" stroke="#0148F9" stroke-width="3" stroke-linecap="round" stroke-linejoin="round"/>
<path d="M43.5 71.3999H40.5C25.3122 71.3999 13 59.0877 13 43.8999V43.8999C13 28.7121 25.3122 16.3999 40.5 16.3999H68" stroke="#0148F9" stroke-width="3" stroke-linecap="round" stroke-linejoin="round"/>
<path d="M64.0003 11.3999L70.667 16.3999L64.0003 21.3999" stroke="#0148F9" stroke-width="3" stroke-linecap="round" stroke-linejoin="round"/>
<line x1="40.5" y1="25.8999" x2="40.5" y2="26.8999" stroke="#0148F9" stroke-width="3" stroke-linecap="round" stroke-linejoin="round"/>
<line x1="57.5" y1="43.8999" x2="58.5" y2="43.8999" stroke="#0148F9" stroke-width="3" stroke-linecap="round" stroke-linejoin="round"/>
<line x1="40.5" y1="43.8999" x2="44.5" y2="43.8999" stroke="#0148F9" stroke-width="3" stroke-linecap="round" stroke-linejoin="round"/>
<line x1="40.5" y1="61.8999" x2="40.5" y2="60.8999" stroke="#0148F9" stroke-width="3" stroke-linecap="round" stroke-linejoin="round"/>
<line x1="22.5" y1="43.8999" x2="23.5" y2="43.8999" stroke="#0148F9" stroke-width="3" stroke-linecap="round" stroke-linejoin="round"/>
<line x1="40.5" y1="34.8999" x2="40.5" y2="43.8999" stroke="#0148F9" stroke-width="3" stroke-linecap="round" stroke-linejoin="round"/>
<circle cx="62.5" cy="59.8999" r="1.5" fill="#0148F9"/>
<circle cx="57.5" cy="64.8999" r="1.5" fill="#0148F9"/>
<circle cx="50.5" cy="68.8999" r="1.5" fill="#0148F9"/>
</svg>
