<svg width="73" height="73" viewBox="0 0 73 73" fill="none" xmlns="http://www.w3.org/2000/svg">
<circle cx="29.3334" cy="30" r="29" fill="#2979FF" fill-opacity="0.2"/>
<circle cx="40.8334" cy="43.5" r="19.5" stroke="#0148F9" stroke-width="3" stroke-linecap="round" stroke-linejoin="round"/>
<path d="M43.8334 71H40.8334C25.6455 71 13.3334 58.6878 13.3334 43.5V43.5C13.3334 28.3122 25.6455 16 40.8334 16H68.3334" stroke="#0148F9" stroke-width="3" stroke-linecap="round" stroke-linejoin="round"/>
<path d="M64.3335 11L71.0001 16L64.3335 21" stroke="#0148F9" stroke-width="3" stroke-linecap="round" stroke-linejoin="round"/>
<line x1="40.8334" y1="25.5" x2="40.8334" y2="26.5" stroke="#0148F9" stroke-width="3" stroke-linecap="round" stroke-linejoin="round"/>
<line x1="57.8334" y1="43.5" x2="58.8334" y2="43.5" stroke="#0148F9" stroke-width="3" stroke-linecap="round" stroke-linejoin="round"/>
<line x1="40.8334" y1="43.5" x2="44.8334" y2="43.5" stroke="#0148F9" stroke-width="3" stroke-linecap="round" stroke-linejoin="round"/>
<line x1="40.8334" y1="61.5" x2="40.8334" y2="60.5" stroke="#0148F9" stroke-width="3" stroke-linecap="round" stroke-linejoin="round"/>
<line x1="22.8334" y1="43.5" x2="23.8334" y2="43.5" stroke="#0148F9" stroke-width="3" stroke-linecap="round" stroke-linejoin="round"/>
<line x1="40.8334" y1="34.5" x2="40.8334" y2="43.5" stroke="#0148F9" stroke-width="3" stroke-linecap="round" stroke-linejoin="round"/>
<circle cx="62.8334" cy="59.5" r="1.5" fill="#0148F9"/>
<circle cx="57.8334" cy="64.5" r="1.5" fill="#0148F9"/>
<circle cx="50.8334" cy="68.5" r="1.5" fill="#0148F9"/>
</svg>
