<svg width="72" height="73" viewBox="0 0 72 73" fill="none" xmlns="http://www.w3.org/2000/svg">
<circle cx="29" cy="30.3999" r="29" fill="#FDC966" fill-opacity="0.22"/>
<path d="M64.9951 71.3999V51.7959C70.7377 39.5187 74.5 11.3999 44.2031 11.3999C35.8861 11.3999 18.6584 17.3405 21.0347 36.9445L15.348 51.4195C14.9013 52.5566 15.5695 53.8249 16.7598 54.0996L22.2228 55.3603V66.0237C22.2228 67.6805 23.5659 69.0237 25.2228 69.0237H37.0743C41.6675 69.0237 45.3911 65.3001 45.3911 60.7068V60.7068" stroke="#FFC453" stroke-width="3" stroke-linecap="round"/>
<path d="M36.4809 39.9162C36.4809 42.5409 39.4066 44.6686 43.0156 44.6686H43.5502C46.864 44.6686 49.5502 47.3549 49.5502 50.6686V53.5795M36.4809 39.9162C36.4809 37.2915 39.4066 35.1637 43.0156 35.1637M36.4809 39.9162C32.5439 39.9162 29.9463 36.7245 29.9463 32.7875C29.9463 28.8504 33.732 25.6587 37.6691 25.6587M37.6691 25.6587C37.6691 21.7217 40.8607 18.53 44.7978 18.53C48.7349 18.53 51.9265 21.7217 51.9265 25.6587M37.6691 25.6587V28.035M51.5208 23.2825C55.4579 23.2825 59.0552 26.4741 59.0552 30.4112L58.9215 31.5993C62.0255 32.1934 63.8077 34.259 63.8077 37.5399C63.8077 40.8208 61.148 43.4805 57.8671 43.4805C54.5862 43.4805 51.9265 40.8208 51.9265 37.5399M49.5502 29.8172C49.5502 27.5205 47.6885 25.6587 45.3918 25.6587C43.0952 25.6587 41.2334 27.5205 41.2334 29.8172M54.3027 33.3815C54.3027 35.6781 52.4409 37.5399 50.1443 37.5399C48.4028 37.5399 46.9113 36.4693 46.292 34.9504" stroke="#FFC453" stroke-width="3" stroke-linecap="round"/>
</svg>
