<svg width="73" height="73" viewBox="0 0 73 73" fill="none" xmlns="http://www.w3.org/2000/svg">
<circle cx="29.6667" cy="30" r="29" fill="#FDC966" fill-opacity="0.22"/>
<path d="M65.6616 71V51.396C71.4041 39.1188 75.1664 11 44.8695 11C36.5526 11 19.3248 16.9406 21.7012 36.5446L16.0144 51.0196C15.5677 52.1567 16.2359 53.425 17.4262 53.6997L22.8892 54.9604V65.6238C22.8892 67.2806 24.2323 68.6238 25.8892 68.6238H37.7407C42.3339 68.6238 46.0575 64.9002 46.0575 60.3069V60.3069" stroke="#FFC453" stroke-width="3" stroke-linecap="round"/>
<path d="M37.1471 39.5163C37.1471 42.141 40.0728 44.2687 43.6818 44.2687H44.2164C47.5302 44.2687 50.2164 46.955 50.2164 50.2687V53.1796M37.1471 39.5163C37.1471 36.8915 40.0728 34.7638 43.6818 34.7638M37.1471 39.5163C33.2101 39.5163 30.6125 36.3246 30.6125 32.3876C30.6125 28.4505 34.3982 25.2588 38.3353 25.2588M38.3353 25.2588C38.3353 21.3218 41.5269 18.1301 45.464 18.1301C49.4011 18.1301 52.5927 21.3218 52.5927 25.2588M38.3353 25.2588V27.6351M52.187 22.8826C56.1241 22.8826 59.7214 26.0742 59.7214 30.0113L59.5877 31.1994C62.6917 31.7935 64.4739 33.8591 64.4739 37.14C64.4739 40.4209 61.8142 43.0806 58.5333 43.0806C55.2524 43.0806 52.5927 40.4209 52.5927 37.14M50.2164 29.4173C50.2164 27.1206 48.3547 25.2588 46.058 25.2588C43.7614 25.2588 41.8996 27.1206 41.8996 29.4173M54.9689 32.9816C54.9689 35.2782 53.1071 37.14 50.8105 37.14C49.069 37.14 47.5775 36.0694 46.9582 34.5505" stroke="#FFC453" stroke-width="3" stroke-linecap="round"/>
</svg>
