<svg width="16" height="16" viewBox="0 0 16 16" fill="none" xmlns="http://www.w3.org/2000/svg">
<rect width="16" height="16" fill="white"/>
<path d="M8.31862 8.57535C9.52715 8.57535 10.5069 7.59564 10.5069 6.3871C10.5069 5.17856 9.52715 4.19885 8.31862 4.19885C7.11008 4.19885 6.13037 5.17856 6.13037 6.3871C6.13037 7.59564 7.11008 8.57535 8.31862 8.57535Z" stroke="#667DA3" stroke-miterlimit="10"/>
<path d="M8.31857 14C10.9783 11.3445 12.0264 9.02554 12.44 7.66673C12.9823 5.87926 12.3886 3.90534 10.8712 2.81872C10.1532 2.30434 9.27017 2 8.31857 2C7.36697 2 6.4861 2.3022 5.76597 2.81872C4.24856 3.90534 3.65488 5.87926 4.19712 7.66673C4.61076 9.02554 5.65881 11.3424 8.31857 14Z" stroke="#667DA3" stroke-linejoin="round"/>
</svg>
