<svg width="24" height="24" viewBox="0 0 24 24" fill="none" xmlns="http://www.w3.org/2000/svg">
<path d="M12.1976 12.9591C14.2118 12.9591 15.8447 11.3262 15.8447 9.312C15.8447 7.29777 14.2118 5.66492 12.1976 5.66492C10.1834 5.66492 8.55054 7.29777 8.55054 9.312C8.55054 11.3262 10.1834 12.9591 12.1976 12.9591Z" stroke="#5D6E8B" stroke-width="1.5" stroke-miterlimit="10"/>
<path d="M12.1976 22C16.6305 17.5742 18.3773 13.7092 19.0667 11.4445C19.9704 8.46544 18.981 5.17557 16.4519 3.36453C15.2553 2.50723 13.7836 2 12.1976 2C10.6116 2 9.1435 2.50366 7.94328 3.36453C5.41426 5.17557 4.4248 8.46544 5.32853 11.4445C6.01794 13.7092 7.76468 17.5706 12.1976 22Z" stroke="#5D6E8B" stroke-width="1.5" stroke-linejoin="round"/>
</svg>
