<svg width="41" height="19" viewBox="0 0 41 19" fill="none" xmlns="http://www.w3.org/2000/svg">
<path d="M0.0505703 6.84C0.0505703 5.57867 0.285237 4.47133 0.75457 3.518C1.23857 2.56467 1.89124 1.83133 2.71257 1.318C3.5339 0.804666 4.45057 0.547999 5.46257 0.547999C6.3279 0.547999 7.08324 0.723999 7.72857 1.076C8.38857 1.428 8.89457 1.89 9.24657 2.462V0.723999H13.0086V13H9.24657V11.262C8.8799 11.834 8.36657 12.296 7.70657 12.648C7.06124 13 6.3059 13.176 5.44057 13.176C4.44324 13.176 3.5339 12.9193 2.71257 12.406C1.89124 11.878 1.23857 11.1373 0.75457 10.184C0.285237 9.216 0.0505703 8.10133 0.0505703 6.84ZM9.24657 6.862C9.24657 5.92333 8.98257 5.18267 8.45457 4.64C7.94124 4.09733 7.31057 3.826 6.56257 3.826C5.81457 3.826 5.17657 4.09733 4.64857 4.64C4.13524 5.168 3.87857 5.90133 3.87857 6.84C3.87857 7.77867 4.13524 8.52667 4.64857 9.084C5.17657 9.62667 5.81457 9.898 6.56257 9.898C7.31057 9.898 7.94124 9.62667 8.45457 9.084C8.98257 8.54133 9.24657 7.80067 9.24657 6.862ZM19.4922 2.462C19.8589 1.89 20.3649 1.428 21.0102 1.076C21.6555 0.723999 22.4109 0.547999 23.2762 0.547999C24.2882 0.547999 25.2049 0.804666 26.0262 1.318C26.8475 1.83133 27.4929 2.56467 27.9622 3.518C28.4462 4.47133 28.6882 5.57867 28.6882 6.84C28.6882 8.10133 28.4462 9.216 27.9622 10.184C27.4929 11.1373 26.8475 11.878 26.0262 12.406C25.2049 12.9193 24.2882 13.176 23.2762 13.176C22.4255 13.176 21.6702 13 21.0102 12.648C20.3649 12.296 19.8589 11.8413 19.4922 11.284V18.852H15.7302V0.723999H19.4922V2.462ZM24.8602 6.84C24.8602 5.90133 24.5962 5.168 24.0682 4.64C23.5549 4.09733 22.9169 3.826 22.1542 3.826C21.4062 3.826 20.7682 4.09733 20.2402 4.64C19.7269 5.18267 19.4702 5.92333 19.4702 6.862C19.4702 7.80067 19.7269 8.54133 20.2402 9.084C20.7682 9.62667 21.4062 9.898 22.1542 9.898C22.9022 9.898 23.5402 9.62667 24.0682 9.084C24.5962 8.52667 24.8602 7.77867 24.8602 6.84ZM35.6559 13.176C34.5852 13.176 33.6319 12.9927 32.7959 12.626C31.9599 12.2593 31.2999 11.7607 30.8159 11.13C30.3319 10.4847 30.0605 9.766 30.0019 8.974H33.7199C33.7639 9.39933 33.9619 9.744 34.3139 10.008C34.6659 10.272 35.0985 10.404 35.6119 10.404C36.0812 10.404 36.4405 10.316 36.6899 10.14C36.9539 9.94933 37.0859 9.70733 37.0859 9.414C37.0859 9.062 36.9025 8.80533 36.5359 8.644C36.1692 8.468 35.5752 8.27733 34.7539 8.072C33.8739 7.86667 33.1405 7.654 32.5539 7.434C31.9672 7.19933 31.4612 6.84 31.0359 6.356C30.6105 5.85733 30.3979 5.19 30.3979 4.354C30.3979 3.65 30.5885 3.012 30.9699 2.44C31.3659 1.85333 31.9379 1.39133 32.6859 1.054C33.4485 0.716666 34.3505 0.547999 35.3919 0.547999C36.9319 0.547999 38.1419 0.929333 39.0219 1.692C39.9165 2.45467 40.4299 3.46667 40.5619 4.728H37.0859C37.0272 4.30267 36.8365 3.96533 36.5139 3.716C36.2059 3.46667 35.7952 3.342 35.2819 3.342C34.8419 3.342 34.5045 3.43 34.2699 3.606C34.0352 3.76733 33.9179 3.99467 33.9179 4.288C33.9179 4.64 34.1012 4.904 34.4679 5.08C34.8492 5.256 35.4359 5.432 36.2279 5.608C37.1372 5.84267 37.8779 6.07733 38.4499 6.312C39.0219 6.532 39.5205 6.89867 39.9459 7.412C40.3859 7.91067 40.6132 8.58533 40.6279 9.436C40.6279 10.1547 40.4225 10.8 40.0119 11.372C39.6159 11.9293 39.0365 12.3693 38.2739 12.692C37.5259 13.0147 36.6532 13.176 35.6559 13.176Z" fill="#0148F9"/>
</svg>
