<svg width="133" height="23" viewBox="0 0 133 23" fill="none" xmlns="http://www.w3.org/2000/svg">
<path d="M0.616 10.84C0.616 9.57867 0.850667 8.47133 1.32 7.518C1.804 6.56467 2.45667 5.83133 3.278 5.318C4.09933 4.80467 5.016 4.548 6.028 4.548C6.89333 4.548 7.64867 4.724 8.294 5.076C8.954 5.428 9.46 5.89 9.812 6.462V4.724H13.574V17H9.812V15.262C9.44533 15.834 8.932 16.296 8.272 16.648C7.62667 17 6.87133 17.176 6.006 17.176C5.00867 17.176 4.09933 16.9193 3.278 16.406C2.45667 15.878 1.804 15.1373 1.32 14.184C0.850667 13.216 0.616 12.1013 0.616 10.84ZM9.812 10.862C9.812 9.92333 9.548 9.18267 9.02 8.64C8.50667 8.09733 7.876 7.826 7.128 7.826C6.38 7.826 5.742 8.09733 5.214 8.64C4.70067 9.168 4.444 9.90133 4.444 10.84C4.444 11.7787 4.70067 12.5267 5.214 13.084C5.742 13.6267 6.38 13.898 7.128 13.898C7.876 13.898 8.50667 13.6267 9.02 13.084C9.548 12.5413 9.812 11.8007 9.812 10.862ZM20.0576 6.462C20.4243 5.89 20.9303 5.428 21.5756 5.076C22.221 4.724 22.9763 4.548 23.8416 4.548C24.8536 4.548 25.7703 4.80467 26.5916 5.318C27.413 5.83133 28.0583 6.56467 28.5276 7.518C29.0116 8.47133 29.2536 9.57867 29.2536 10.84C29.2536 12.1013 29.0116 13.216 28.5276 14.184C28.0583 15.1373 27.413 15.878 26.5916 16.406C25.7703 16.9193 24.8536 17.176 23.8416 17.176C22.991 17.176 22.2356 17 21.5756 16.648C20.9303 16.296 20.4243 15.8413 20.0576 15.284V22.852H16.2956V4.724H20.0576V6.462ZM25.4256 10.84C25.4256 9.90133 25.1616 9.168 24.6336 8.64C24.1203 8.09733 23.4823 7.826 22.7196 7.826C21.9716 7.826 21.3336 8.09733 20.8056 8.64C20.2923 9.18267 20.0356 9.92333 20.0356 10.862C20.0356 11.8007 20.2923 12.5413 20.8056 13.084C21.3336 13.6267 21.9716 13.898 22.7196 13.898C23.4676 13.898 24.1056 13.6267 24.6336 13.084C25.1616 12.5267 25.4256 11.7787 25.4256 10.84ZM36.2213 17.176C35.1506 17.176 34.1973 16.9927 33.3613 16.626C32.5253 16.2593 31.8653 15.7607 31.3813 15.13C30.8973 14.4847 30.6259 13.766 30.5673 12.974H34.2853C34.3293 13.3993 34.5273 13.744 34.8793 14.008C35.2313 14.272 35.6639 14.404 36.1773 14.404C36.6466 14.404 37.0059 14.316 37.2553 14.14C37.5193 13.9493 37.6513 13.7073 37.6513 13.414C37.6513 13.062 37.4679 12.8053 37.1013 12.644C36.7346 12.468 36.1406 12.2773 35.3193 12.072C34.4393 11.8667 33.7059 11.654 33.1193 11.434C32.5326 11.1993 32.0266 10.84 31.6013 10.356C31.1759 9.85733 30.9633 9.19 30.9633 8.354C30.9633 7.65 31.1539 7.012 31.5353 6.44C31.9313 5.85333 32.5033 5.39133 33.2513 5.054C34.0139 4.71667 34.9159 4.548 35.9573 4.548C37.4973 4.548 38.7073 4.92933 39.5873 5.692C40.4819 6.45467 40.9953 7.46667 41.1273 8.728H37.6513C37.5926 8.30267 37.4019 7.96533 37.0793 7.716C36.7713 7.46667 36.3606 7.342 35.8473 7.342C35.4073 7.342 35.0699 7.43 34.8353 7.606C34.6006 7.76733 34.4833 7.99467 34.4833 8.288C34.4833 8.64 34.6666 8.904 35.0333 9.08C35.4146 9.256 36.0013 9.432 36.7933 9.608C37.7026 9.84267 38.4433 10.0773 39.0153 10.312C39.5873 10.532 40.0859 10.8987 40.5113 11.412C40.9513 11.9107 41.1786 12.5853 41.1933 13.436C41.1933 14.1547 40.9879 14.8 40.5773 15.372C40.1813 15.9293 39.6019 16.3693 38.8393 16.692C38.0913 17.0147 37.2186 17.176 36.2213 17.176Z" fill="#0148F9"/>
<path d="M65.779 4.724L62.457 17H58.299L56.363 9.036L54.361 17H50.225L46.881 4.724H50.643L52.381 13.502L54.449 4.724H58.431L60.521 13.458L62.237 4.724H65.779ZM72.8016 17.176C71.5989 17.176 70.5136 16.9193 69.5456 16.406C68.5923 15.8927 67.8369 15.1593 67.2796 14.206C66.7369 13.2527 66.4656 12.138 66.4656 10.862C66.4656 9.60067 66.7443 8.49333 67.3016 7.54C67.8589 6.572 68.6216 5.83133 69.5896 5.318C70.5576 4.80467 71.6429 4.548 72.8456 4.548C74.0483 4.548 75.1336 4.80467 76.1016 5.318C77.0696 5.83133 77.8323 6.572 78.3896 7.54C78.9469 8.49333 79.2256 9.60067 79.2256 10.862C79.2256 12.1233 78.9396 13.238 78.3676 14.206C77.8103 15.1593 77.0403 15.8927 76.0576 16.406C75.0896 16.9193 74.0043 17.176 72.8016 17.176ZM72.8016 13.92C73.5203 13.92 74.1289 13.656 74.6276 13.128C75.1409 12.6 75.3976 11.8447 75.3976 10.862C75.3976 9.87933 75.1483 9.124 74.6496 8.596C74.1656 8.068 73.5643 7.804 72.8456 7.804C72.1123 7.804 71.5036 8.068 71.0196 8.596C70.5356 9.10933 70.2936 9.86467 70.2936 10.862C70.2936 11.8447 70.5283 12.6 70.9976 13.128C71.4816 13.656 72.0829 13.92 72.8016 13.92ZM88.7014 4.592C90.1388 4.592 91.2828 5.06133 92.1334 6C92.9988 6.924 93.4314 8.2 93.4314 9.828V17H89.6914V10.334C89.6914 9.51267 89.4788 8.87467 89.0534 8.42C88.6281 7.96533 88.0561 7.738 87.3374 7.738C86.6188 7.738 86.0468 7.96533 85.6214 8.42C85.1961 8.87467 84.9834 9.51267 84.9834 10.334V17H81.2214V4.724H84.9834V6.352C85.3648 5.80933 85.8781 5.384 86.5234 5.076C87.1688 4.75333 87.8948 4.592 88.7014 4.592ZM95.2976 10.84C95.2976 9.57867 95.5323 8.47133 96.0016 7.518C96.4856 6.56467 97.1383 5.83133 97.9596 5.318C98.781 4.80467 99.6976 4.548 100.71 4.548C101.516 4.548 102.25 4.71667 102.91 5.054C103.584 5.39133 104.112 5.846 104.494 6.418V0.72H108.256V17H104.494V15.24C104.142 15.8267 103.636 16.296 102.976 16.648C102.33 17 101.575 17.176 100.71 17.176C99.6976 17.176 98.781 16.9193 97.9596 16.406C97.1383 15.878 96.4856 15.1373 96.0016 14.184C95.5323 13.216 95.2976 12.1013 95.2976 10.84ZM104.494 10.862C104.494 9.92333 104.23 9.18267 103.702 8.64C103.188 8.09733 102.558 7.826 101.81 7.826C101.062 7.826 100.424 8.09733 99.8956 8.64C99.3823 9.168 99.1256 9.90133 99.1256 10.84C99.1256 11.7787 99.3823 12.5267 99.8956 13.084C100.424 13.6267 101.062 13.898 101.81 13.898C102.558 13.898 103.188 13.6267 103.702 13.084C104.23 12.5413 104.494 11.8007 104.494 10.862ZM122.549 10.664C122.549 11.016 122.527 11.3827 122.483 11.764H113.969C114.028 12.5267 114.27 13.1133 114.695 13.524C115.135 13.92 115.671 14.118 116.301 14.118C117.24 14.118 117.893 13.722 118.259 12.93H122.263C122.058 13.7367 121.684 14.4627 121.141 15.108C120.613 15.7533 119.946 16.2593 119.139 16.626C118.333 16.9927 117.431 17.176 116.433 17.176C115.231 17.176 114.16 16.9193 113.221 16.406C112.283 15.8927 111.549 15.1593 111.021 14.206C110.493 13.2527 110.229 12.138 110.229 10.862C110.229 9.586 110.486 8.47133 110.999 7.518C111.527 6.56467 112.261 5.83133 113.199 5.318C114.138 4.80467 115.216 4.548 116.433 4.548C117.621 4.548 118.677 4.79733 119.601 5.296C120.525 5.79467 121.244 6.506 121.757 7.43C122.285 8.354 122.549 9.432 122.549 10.664ZM118.699 9.674C118.699 9.02867 118.479 8.51533 118.039 8.134C117.599 7.75267 117.049 7.562 116.389 7.562C115.759 7.562 115.223 7.74533 114.783 8.112C114.358 8.47867 114.094 8.99933 113.991 9.674H118.699ZM128.296 6.77C128.736 6.09533 129.286 5.56733 129.946 5.186C130.606 4.79 131.339 4.592 132.146 4.592V8.574H131.112C130.173 8.574 129.469 8.77933 129 9.19C128.531 9.586 128.296 10.29 128.296 11.302V17H124.534V4.724H128.296V6.77Z" fill="black"/>
</svg>
