<svg width="16" height="16" viewBox="0 0 16 16" fill="none" xmlns="http://www.w3.org/2000/svg">
<rect width="16" height="16" fill="white"/>
<path d="M9.75508 13.8288C5.1693 12.1501 3.08114 8.51334 2.20008 6.28352C1.77702 5.21228 2.03901 3.99354 2.85215 3.18041L3.78755 2.24307C4.11164 1.91898 4.63755 1.91898 4.96165 2.24307L6.50641 3.78783C6.8305 4.11192 6.8305 4.63784 6.50641 4.96193L5.38277 6.08558C7.18176 9.41381 9.89092 10.5937 9.89092 10.5937L11.0146 9.47009C11.3387 9.146 11.8646 9.146 12.1887 9.47009L13.7334 11.0149C14.0575 11.3389 14.0575 11.8649 13.7334 12.189L12.7767 13.1457C11.9868 13.9356 10.8069 14.2131 9.75702 13.8288H9.75508Z" stroke="#667DA3" stroke-linejoin="round"/>
</svg>
