<svg width="96" height="96" viewBox="0 0 96 96" fill="none" xmlns="http://www.w3.org/2000/svg">
<g filter="url(#filter0_d_221_599)">
<circle cx="48" cy="40" r="20" fill="white"/>
</g>
<path d="M42.78 44.26C43.2333 43.9 43.44 43.7333 43.4 43.76C44.7067 42.68 45.7333 41.7933 46.48 41.1C47.24 40.4067 47.88 39.68 48.4 38.92C48.92 38.16 49.18 37.42 49.18 36.7C49.18 36.1533 49.0533 35.7267 48.8 35.42C48.5467 35.1133 48.1667 34.96 47.66 34.96C47.1533 34.96 46.7533 35.1533 46.46 35.54C46.18 35.9133 46.04 36.4467 46.04 37.14H42.74C42.7667 36.0067 43.0067 35.06 43.46 34.3C43.9267 33.54 44.5333 32.98 45.28 32.62C46.04 32.26 46.88 32.08 47.8 32.08C49.3867 32.08 50.58 32.4867 51.38 33.3C52.1933 34.1133 52.6 35.1733 52.6 36.48C52.6 37.9067 52.1133 39.2333 51.14 40.46C50.1667 41.6733 48.9267 42.86 47.42 44.02H52.82V46.8H42.78V44.26Z" fill="#EF40A9"/>
<defs>
<filter id="filter0_d_221_599" x="0" y="0" width="96" height="96" filterUnits="userSpaceOnUse" color-interpolation-filters="sRGB">
<feFlood flood-opacity="0" result="BackgroundImageFix"/>
<feColorMatrix in="SourceAlpha" type="matrix" values="0 0 0 0 0 0 0 0 0 0 0 0 0 0 0 0 0 0 127 0" result="hardAlpha"/>
<feMorphology radius="4" operator="dilate" in="SourceAlpha" result="effect1_dropShadow_221_599"/>
<feOffset dy="8"/>
<feGaussianBlur stdDeviation="12"/>
<feComposite in2="hardAlpha" operator="out"/>
<feColorMatrix type="matrix" values="0 0 0 0 0.100347 0 0 0 0 0.195233 0 0 0 0 0.354167 0 0 0 0.12 0"/>
<feBlend mode="normal" in2="BackgroundImageFix" result="effect1_dropShadow_221_599"/>
<feBlend mode="normal" in="SourceGraphic" in2="effect1_dropShadow_221_599" result="shape"/>
</filter>
</defs>
</svg>
