<svg width="96" height="328" viewBox="0 0 96 328" fill="none" xmlns="http://www.w3.org/2000/svg">
<line x1="49" y1="43" x2="49" y2="272" stroke="#CFE1FF" stroke-width="2" stroke-dasharray="4 4"/>
<g filter="url(#filter0_d_221_264)">
<circle cx="48" cy="40" r="20" fill="white"/>
</g>
<path d="M44.54 35.58V32.4H50.08V47H46.52V35.58H44.54Z" fill="#EF40A9"/>
<g filter="url(#filter1_d_221_264)">
<circle cx="48" cy="159" r="20" fill="white"/>
</g>
<path d="M42.78 163.26C43.2333 162.9 43.44 162.733 43.4 162.76C44.7067 161.68 45.7333 160.793 46.48 160.1C47.24 159.407 47.88 158.68 48.4 157.92C48.92 157.16 49.18 156.42 49.18 155.7C49.18 155.153 49.0533 154.727 48.8 154.42C48.5467 154.113 48.1667 153.96 47.66 153.96C47.1533 153.96 46.7533 154.153 46.46 154.54C46.18 154.913 46.04 155.447 46.04 156.14H42.74C42.7667 155.007 43.0067 154.06 43.46 153.3C43.9267 152.54 44.5333 151.98 45.28 151.62C46.04 151.26 46.88 151.08 47.8 151.08C49.3867 151.08 50.58 151.487 51.38 152.3C52.1933 153.113 52.6 154.173 52.6 155.48C52.6 156.907 52.1133 158.233 51.14 159.46C50.1667 160.673 48.9267 161.86 47.42 163.02H52.82V165.8H42.78V163.26Z" fill="#EF40A9"/>
<g filter="url(#filter2_d_221_264)">
<circle cx="48" cy="272" r="20" fill="white"/>
</g>
<path d="M43.02 268.52C43.0733 267.093 43.54 265.993 44.42 265.22C45.3 264.447 46.4933 264.06 48 264.06C49 264.06 49.8533 264.233 50.56 264.58C51.28 264.927 51.82 265.4 52.18 266C52.5533 266.6 52.74 267.273 52.74 268.02C52.74 268.9 52.52 269.62 52.08 270.18C51.64 270.727 51.1267 271.1 50.54 271.3V271.38C51.3 271.633 51.9 272.053 52.34 272.64C52.78 273.227 53 273.98 53 274.9C53 275.727 52.8067 276.46 52.42 277.1C52.0467 277.727 51.4933 278.22 50.76 278.58C50.04 278.94 49.18 279.12 48.18 279.12C46.58 279.12 45.3 278.727 44.34 277.94C43.3933 277.153 42.8933 275.967 42.84 274.38H46.16C46.1733 274.967 46.34 275.433 46.66 275.78C46.98 276.113 47.4467 276.28 48.06 276.28C48.58 276.28 48.98 276.133 49.26 275.84C49.5533 275.533 49.7 275.133 49.7 274.64C49.7 274 49.4933 273.54 49.08 273.26C48.68 272.967 48.0333 272.82 47.14 272.82H46.5V270.04H47.14C47.82 270.04 48.3667 269.927 48.78 269.7C49.2067 269.46 49.42 269.04 49.42 268.44C49.42 267.96 49.2867 267.587 49.02 267.32C48.7533 267.053 48.3867 266.92 47.92 266.92C47.4133 266.92 47.0333 267.073 46.78 267.38C46.54 267.687 46.4 268.067 46.36 268.52H43.02Z" fill="#EF40A9"/>
<defs>
<filter id="filter0_d_221_264" x="0" y="0" width="96" height="96" filterUnits="userSpaceOnUse" color-interpolation-filters="sRGB">
<feFlood flood-opacity="0" result="BackgroundImageFix"/>
<feColorMatrix in="SourceAlpha" type="matrix" values="0 0 0 0 0 0 0 0 0 0 0 0 0 0 0 0 0 0 127 0" result="hardAlpha"/>
<feMorphology radius="4" operator="dilate" in="SourceAlpha" result="effect1_dropShadow_221_264"/>
<feOffset dy="8"/>
<feGaussianBlur stdDeviation="12"/>
<feComposite in2="hardAlpha" operator="out"/>
<feColorMatrix type="matrix" values="0 0 0 0 0.100347 0 0 0 0 0.195233 0 0 0 0 0.354167 0 0 0 0.12 0"/>
<feBlend mode="normal" in2="BackgroundImageFix" result="effect1_dropShadow_221_264"/>
<feBlend mode="normal" in="SourceGraphic" in2="effect1_dropShadow_221_264" result="shape"/>
</filter>
<filter id="filter1_d_221_264" x="0" y="119" width="96" height="96" filterUnits="userSpaceOnUse" color-interpolation-filters="sRGB">
<feFlood flood-opacity="0" result="BackgroundImageFix"/>
<feColorMatrix in="SourceAlpha" type="matrix" values="0 0 0 0 0 0 0 0 0 0 0 0 0 0 0 0 0 0 127 0" result="hardAlpha"/>
<feMorphology radius="4" operator="dilate" in="SourceAlpha" result="effect1_dropShadow_221_264"/>
<feOffset dy="8"/>
<feGaussianBlur stdDeviation="12"/>
<feComposite in2="hardAlpha" operator="out"/>
<feColorMatrix type="matrix" values="0 0 0 0 0.100347 0 0 0 0 0.195233 0 0 0 0 0.354167 0 0 0 0.12 0"/>
<feBlend mode="normal" in2="BackgroundImageFix" result="effect1_dropShadow_221_264"/>
<feBlend mode="normal" in="SourceGraphic" in2="effect1_dropShadow_221_264" result="shape"/>
</filter>
<filter id="filter2_d_221_264" x="0" y="232" width="96" height="96" filterUnits="userSpaceOnUse" color-interpolation-filters="sRGB">
<feFlood flood-opacity="0" result="BackgroundImageFix"/>
<feColorMatrix in="SourceAlpha" type="matrix" values="0 0 0 0 0 0 0 0 0 0 0 0 0 0 0 0 0 0 127 0" result="hardAlpha"/>
<feMorphology radius="4" operator="dilate" in="SourceAlpha" result="effect1_dropShadow_221_264"/>
<feOffset dy="8"/>
<feGaussianBlur stdDeviation="12"/>
<feComposite in2="hardAlpha" operator="out"/>
<feColorMatrix type="matrix" values="0 0 0 0 0.100347 0 0 0 0 0.195233 0 0 0 0 0.354167 0 0 0 0.12 0"/>
<feBlend mode="normal" in2="BackgroundImageFix" result="effect1_dropShadow_221_264"/>
<feBlend mode="normal" in="SourceGraphic" in2="effect1_dropShadow_221_264" result="shape"/>
</filter>
</defs>
</svg>
