<svg width="184" height="185" viewBox="0 0 184 185" fill="none" xmlns="http://www.w3.org/2000/svg">
<circle cx="95" cy="95.5" r="14" fill="url(#paint0_linear_223_609)"/>
<circle cx="94.5" cy="95" r="37.5" stroke="url(#paint1_linear_223_609)" stroke-width="20"/>
<circle cx="94.5" cy="95" r="69.5" stroke="url(#paint2_linear_223_609)" stroke-width="20"/>
<path d="M149 34.0833L95 95.5L94.5 95L140.692 28.5L149 34.0833Z" fill="#1A325A"/>
<path d="M151.808 8.90474C136.973 -14.8696 138.019 17.3956 140.397 36.5C187.182 25.7446 175.105 19.2826 163.219 17.396C167.783 4.37671 157.513 6.31045 151.808 8.90474Z" fill="#EF40A9"/>
<path d="M12.8524 174.835C4.63004 138.923 25.7656 114.982 37.3612 107.5H58.7077C84.0071 131.548 82.4259 162.009 79.2635 174.835C53.964 185.095 24.448 179.11 12.8524 174.835Z" fill="url(#paint3_linear_223_609)"/>
<path d="M40.5425 90.5772C26.8823 84.4234 34.8508 99.295 40.5425 107.5H52.7391C67.7004 88.4243 58.973 88.2699 52.7391 90.5772C47.5352 83.193 42.4398 87.5004 40.5425 90.5772Z" fill="#FDC966"/>
<path d="M58 106.5C54.08 107.255 44.392 108.311 37 106.5" stroke="#1A325A" stroke-width="6" stroke-linecap="round"/>
<path d="M56.72 153.34C56.72 154.807 56.3333 156.167 55.56 157.42C54.8133 158.647 53.6933 159.66 52.2 160.46C50.7333 161.233 48.9867 161.66 46.96 161.74V164.98H44.4V161.7C41.5733 161.46 39.2933 160.62 37.56 159.18C35.8267 157.713 34.9067 155.727 34.8 153.22H42.08C42.24 154.82 43.0133 155.847 44.4 156.3V149.98C42.32 149.447 40.6533 148.927 39.4 148.42C38.1733 147.913 37.0933 147.1 36.16 145.98C35.2267 144.86 34.76 143.327 34.76 141.38C34.76 138.953 35.6533 137.007 37.44 135.54C39.2533 134.073 41.5733 133.247 44.4 133.06V129.82H46.96V133.06C49.76 133.273 51.9733 134.087 53.6 135.5C55.2267 136.913 56.1333 138.873 56.32 141.38H49C48.84 139.94 48.16 139.007 46.96 138.58V144.78C49.1733 145.393 50.88 145.94 52.08 146.42C53.28 146.9 54.3467 147.7 55.28 148.82C56.24 149.913 56.72 151.42 56.72 153.34ZM42 141.06C42 141.727 42.2 142.287 42.6 142.74C43.0267 143.193 43.6267 143.593 44.4 143.94V138.38C43.6533 138.513 43.0667 138.807 42.64 139.26C42.2133 139.687 42 140.287 42 141.06ZM46.96 156.42C47.76 156.287 48.3867 155.967 48.84 155.46C49.32 154.953 49.56 154.327 49.56 153.58C49.56 152.887 49.3333 152.327 48.88 151.9C48.4533 151.447 47.8133 151.06 46.96 150.74V156.42Z" fill="white"/>
<defs>
<linearGradient id="paint0_linear_223_609" x1="105.536" y1="84.3785" x2="83.5227" y2="110.09" gradientUnits="userSpaceOnUse">
<stop stop-color="#6DA0F3"/>
<stop offset="1" stop-color="#2463CD"/>
</linearGradient>
<linearGradient id="paint1_linear_223_609" x1="122.722" y1="65.2103" x2="63.7571" y2="134.08" gradientUnits="userSpaceOnUse">
<stop stop-color="#6DA0F3"/>
<stop offset="1" stop-color="#2463CD"/>
</linearGradient>
<linearGradient id="paint2_linear_223_609" x1="146.804" y1="39.7897" x2="37.5232" y2="167.428" gradientUnits="userSpaceOnUse">
<stop stop-color="#6DA0F3"/>
<stop offset="1" stop-color="#2463CD"/>
</linearGradient>
<linearGradient id="paint3_linear_223_609" x1="15.2242" y1="166.017" x2="61.8234" y2="111.34" gradientUnits="userSpaceOnUse">
<stop stop-color="#F3C03D"/>
<stop offset="1" stop-color="#FFE175"/>
</linearGradient>
</defs>
</svg>
