<svg width="24" height="16" viewBox="0 0 24 16" fill="none" xmlns="http://www.w3.org/2000/svg">
<path d="M1.24783 16H22.7522C23.4435 15.9625 24 15.4083 24 14.7375V1.2625C24 0.570833 23.413 0.00416667 22.6913 0H1.3087C0.586957 0.00416667 0 0.570833 0 1.2625V14.7333C0 15.4083 0.556522 15.9625 1.24783 16Z" fill="#FEFEFE"/>
<path d="M10.3217 9.59583V16H13.6609V9.59583H24V6.39583H13.6609V0H10.3217V6.39583H0V9.59583H10.3217Z" fill="#E93351"/>
<path d="M14.7739 5.17917V0H22.7C23.2478 0.00833333 23.7174 0.3375 23.9087 0.8L14.7739 5.17917Z" fill="#1951CE"/>
<path d="M14.7739 10.8208V16H22.7522C23.2783 15.9708 23.7218 15.6458 23.9087 15.2L14.7739 10.8208Z" fill="#1951CE"/>
<path d="M9.2087 10.8208V16H1.24783C0.721743 15.9708 0.273917 15.6458 0.0913086 15.1916L9.2087 10.8208Z" fill="#1951CE"/>
<path d="M9.2087 5.17917V0H1.3C0.752178 0.00833333 0.278265 0.341667 0.0913086 0.808333L9.2087 5.17917Z" fill="#1951CE"/>
<path d="M0 5.33338H3.32609L0 3.73755V5.33338Z" fill="#1951CE"/>
<path d="M24 5.33341H20.6565L24 3.72925V5.33341Z" fill="#1951CE"/>
<path d="M24 10.6667H20.6565L24 12.2709V10.6667Z" fill="#1951CE"/>
<path d="M0 10.6667H3.32609L0 12.2626V10.6667Z" fill="#1951CE"/>
<path d="M23.9999 1.35425L15.7173 5.33341H17.5695L23.9999 2.25008V1.35425Z" fill="#E93351"/>
<path d="M8.26522 10.6667H6.41304L0 13.7417V14.6376L8.28261 10.6667H8.26522Z" fill="#E93351"/>
<path d="M4.57391 5.33748H6.42609L0 2.25415V3.14582L4.57391 5.33748Z" fill="#E93351"/>
<path d="M19.4044 10.6626H17.5522L24.0001 13.7584V12.8668L19.4044 10.6626Z" fill="#E93351"/>
</svg>
