<svg width="184" height="184" viewBox="0 0 184 184" fill="none" xmlns="http://www.w3.org/2000/svg">
<rect width="184" height="34" rx="4" fill="url(#paint0_linear_236_797)"/>
<rect y="146" width="88" height="38" rx="4" fill="url(#paint1_linear_236_797)"/>
<rect x="96" y="146" width="88" height="38" rx="4" fill="url(#paint2_linear_236_797)"/>
<rect x="96" y="42" width="88" height="96" rx="4" fill="url(#paint3_linear_236_797)"/>
<rect y="42" width="88" height="96" rx="4" fill="url(#paint4_linear_236_797)"/>
<mask id="mask0_236_797" style="mask-type:alpha" maskUnits="userSpaceOnUse" x="96" y="42" width="88" height="96">
<rect x="96" y="42" width="88" height="96" rx="4" fill="url(#paint5_linear_236_797)"/>
</mask>
<g mask="url(#mask0_236_797)">
<path d="M103.639 96.2087C105.215 93.767 108.785 93.767 110.361 96.2087L135.928 135.831C137.646 138.493 135.735 142 132.567 142H81.4326C78.2649 142 76.3541 138.493 78.0716 135.831L103.639 96.2087Z" fill="url(#paint6_linear_236_797)"/>
<path d="M152.635 75.2344C154.21 72.785 157.79 72.785 159.365 75.2344L198.804 136.587C200.515 139.249 198.604 142.75 195.439 142.75H116.561C113.396 142.75 111.485 139.249 113.196 136.587L152.635 75.2344Z" fill="url(#paint7_linear_236_797)"/>
<circle cx="126" cy="67" r="11" fill="url(#paint8_linear_236_797)"/>
</g>
<path d="M24.1335 64.7108C31.815 67.4219 50.4312 71.2174 63.4445 64.7108" stroke="white" stroke-width="3"/>
<path d="M14.6447 75.555C25.941 79.1698 53.4134 84.2305 72.9333 75.555" stroke="white" stroke-width="3"/>
<circle cx="44.4668" cy="90.4668" r="32.5332" stroke="white" stroke-width="3"/>
<path d="M44.4668 57.9336C51.2445 68.778 56.3956 100.227 44.4668 123" stroke="white" stroke-width="3"/>
<path d="M39.4189 57.9336C32.6412 68.778 27.4901 100.227 39.4189 123" stroke="white" stroke-width="3"/>
<path d="M30.9113 60.645C21.4224 71.4894 13.2891 94.5338 30.9113 120.289" stroke="white" stroke-width="3"/>
<path d="M53.9556 59.2893C66.1555 75.5559 68.8666 98.6002 52.6 121.645" stroke="white" stroke-width="3"/>
<path d="M77 90.4665H11.9336" stroke="white" stroke-width="3"/>
<path d="M16.0002 105.375C22.7779 101.311 54.4978 97.7844 72.9333 105.375" stroke="white" stroke-width="3"/>
<path d="M24.1335 116.225C34.9779 112.156 51.7868 111.888 64.8 116.225" stroke="white" stroke-width="3"/>
<path d="M18.5563 12.9203L9 18.0094L18.5563 23.9467" stroke="white" stroke-width="3" stroke-linecap="round" stroke-linejoin="round"/>
<path d="M34.3178 23.9467L42.4039 18.8576L34.3178 12.9203" stroke="white" stroke-width="3" stroke-linecap="round" stroke-linejoin="round"/>
<line x1="29.1587" y1="10.9379" x2="23.8426" y2="24.787" stroke="white" stroke-width="3" stroke-linecap="round" stroke-linejoin="round"/>
<circle cx="148" cy="17" r="4" fill="white"/>
<circle cx="160" cy="17" r="4" fill="white"/>
<circle cx="172" cy="17" r="4" fill="white"/>
<path fill-rule="evenodd" clip-rule="evenodd" d="M46.498 151C46.498 149.895 47.3935 149 48.498 149H50.2242C51.3288 149 52.2242 149.895 52.2242 151V152.353C52.2242 152.89 52.5794 153.358 53.0735 153.567C53.5737 153.778 54.1581 153.698 54.5422 153.314L55.534 152.322C56.315 151.541 57.5813 151.541 58.3624 152.322L59.583 153.543C60.3641 154.324 60.3641 155.59 59.583 156.371L58.4293 157.525C58.1055 157.849 58.0306 158.339 58.2033 158.764C58.3781 159.193 58.7832 159.498 59.2465 159.498H60.7223C61.8269 159.498 62.7223 160.394 62.7223 161.498V163.225C62.7223 164.329 61.8269 165.225 60.7223 165.225H59.3085C58.8083 165.225 58.3714 165.555 58.1797 166.017C57.9879 166.479 58.0657 167.017 58.4195 167.371L59.583 168.534C60.3641 169.315 60.3641 170.581 59.583 171.362L58.3624 172.583C57.5813 173.364 56.315 173.364 55.534 172.583L54.3708 171.42C54.0168 171.066 53.4794 170.988 53.0171 171.18C52.555 171.372 52.2242 171.809 52.2242 172.309V173.906C52.2242 175.011 51.3288 175.906 50.2242 175.906H48.498C47.3935 175.906 46.498 175.011 46.498 173.906V172.247C46.498 171.784 46.1923 171.379 45.7634 171.204C45.3394 171.031 44.8492 171.106 44.5255 171.43L43.372 172.583C42.591 173.364 41.3247 173.364 40.5436 172.583L39.323 171.363C38.5419 170.582 38.5419 169.315 39.323 168.534L40.3138 167.543C40.698 167.159 40.778 166.575 40.5665 166.074C40.3576 165.58 39.8893 165.225 39.3527 165.225H38C36.8954 165.225 36 164.329 36 163.225V161.498C36 160.394 36.8954 159.498 38 159.498H39.4137C39.914 159.498 40.351 159.168 40.5428 158.706C40.7347 158.243 40.6569 157.706 40.303 157.352L39.323 156.372C38.5419 155.591 38.5419 154.325 39.323 153.544L40.5436 152.323C41.3247 151.542 42.591 151.542 43.372 152.323L44.3524 153.303C44.7062 153.657 45.2434 153.735 45.7055 153.543C46.1674 153.351 46.498 152.915 46.498 152.414V151ZM52.9933 162.453C52.9933 164.408 51.4083 165.993 49.453 165.993C47.4978 165.993 45.9128 164.408 45.9128 162.453C45.9128 160.497 47.4978 158.912 49.453 158.912C51.4083 158.912 52.9933 160.497 52.9933 162.453Z" fill="url(#paint9_linear_236_797)"/>
<path fill-rule="evenodd" clip-rule="evenodd" d="M71.157 161C71.157 160.448 71.6047 160 72.157 160H74.6063C75.1586 160 75.6063 160.448 75.6063 161V162.606C75.6063 163.023 75.8822 163.386 76.2661 163.549C76.6548 163.713 77.1089 163.651 77.4073 163.352L78.5697 162.19C78.9602 161.799 79.5934 161.799 79.9839 162.19L81.7158 163.922C82.1064 164.312 82.1064 164.945 81.7158 165.336L80.4276 166.624C80.176 166.876 80.1178 167.257 80.252 167.586C80.3878 167.92 80.7025 168.157 81.0625 168.157H82.7634C83.3156 168.157 83.7634 168.605 83.7634 169.157V171.607C83.7634 172.159 83.3156 172.607 82.7634 172.607H81.1108C80.7221 172.607 80.3827 172.864 80.2337 173.222C80.0846 173.582 80.1451 173.999 80.42 174.274L81.7158 175.57C82.1064 175.96 82.1064 176.593 81.7158 176.984L79.9839 178.716C79.5934 179.106 78.9602 179.106 78.5697 178.716L77.2742 177.42C76.9992 177.145 76.5816 177.085 76.2224 177.234C75.8633 177.383 75.6063 177.723 75.6063 178.111V179.906C75.6063 180.459 75.1586 180.906 74.6063 180.906H72.157C71.6047 180.906 71.157 180.459 71.157 179.906V178.063C71.157 177.703 70.9194 177.388 70.5862 177.253C70.2567 177.118 69.8758 177.177 69.6243 177.428L68.3363 178.716C67.9458 179.107 67.3126 179.107 66.9221 178.716L65.1902 176.984C64.7997 176.594 64.7997 175.96 65.1902 175.57L66.3518 174.408C66.6503 174.11 66.7125 173.656 66.5481 173.267C66.3858 172.883 66.0219 172.607 65.605 172.607H64C63.4477 172.607 63 172.159 63 171.607V169.157C63 168.605 63.4477 168.157 64 168.157H65.6525C66.0412 168.157 66.3808 167.9 66.5298 167.541C66.6789 167.182 66.6184 166.765 66.3434 166.49L65.1902 165.336C64.7997 164.946 64.7997 164.313 65.1902 163.922L66.9221 162.19C67.3126 161.8 67.9458 161.8 68.3363 162.19L69.4899 163.344C69.7648 163.619 70.1821 163.679 70.5412 163.53C70.9001 163.381 71.157 163.042 71.157 162.653V161ZM76.2038 170.453C76.2038 171.972 74.9723 173.204 73.453 173.204C71.9338 173.204 70.7022 171.972 70.7022 170.453C70.7022 168.934 71.9338 167.702 73.453 167.702C74.9723 167.702 76.2038 168.934 76.2038 170.453Z" fill="url(#paint10_linear_236_797)"/>
<rect x="5" y="153" width="23" height="6" rx="1" fill="url(#paint11_linear_236_797)"/>
<rect x="5" y="162" width="23" height="6" rx="1" fill="url(#paint12_linear_236_797)"/>
<rect x="5" y="171" width="23" height="6" rx="1" fill="url(#paint13_linear_236_797)"/>
<path d="M150.25 164.567C150.583 164.759 150.583 165.241 150.25 165.433L135.25 174.093C134.917 174.286 134.5 174.045 134.5 173.66L134.5 156.34C134.5 155.955 134.917 155.714 135.25 155.907L150.25 164.567Z" stroke="white" stroke-width="3"/>
<defs>
<linearGradient id="paint0_linear_236_797" x1="-22" y1="30.5" x2="-5.27309" y2="-36.88" gradientUnits="userSpaceOnUse">
<stop stop-color="#F3C03D"/>
<stop offset="1" stop-color="#FFE175"/>
</linearGradient>
<linearGradient id="paint1_linear_236_797" x1="88" y1="146" x2="59.2107" y2="241.586" gradientUnits="userSpaceOnUse">
<stop stop-color="#FFFBFA"/>
<stop offset="1" stop-color="#E0ECFF"/>
</linearGradient>
<linearGradient id="paint2_linear_236_797" x1="173.113" y1="149.907" x2="153.444" y2="203.107" gradientUnits="userSpaceOnUse">
<stop stop-color="#6DA0F3"/>
<stop offset="1" stop-color="#2463CD"/>
</linearGradient>
<linearGradient id="paint3_linear_236_797" x1="173.113" y1="51.8692" x2="96.9048" y2="133.462" gradientUnits="userSpaceOnUse">
<stop stop-color="#FFFBFA"/>
<stop offset="1" stop-color="#DBE4F2"/>
</linearGradient>
<linearGradient id="paint4_linear_236_797" x1="77.1134" y1="51.8692" x2="0.904755" y2="133.462" gradientUnits="userSpaceOnUse">
<stop stop-color="#6DA0F3"/>
<stop offset="1" stop-color="#2463CD"/>
</linearGradient>
<linearGradient id="paint5_linear_236_797" x1="173.113" y1="51.8692" x2="96.9048" y2="133.462" gradientUnits="userSpaceOnUse">
<stop stop-color="#FFFBFA"/>
<stop offset="1" stop-color="#052B6A"/>
</linearGradient>
<linearGradient id="paint6_linear_236_797" x1="69" y1="108.184" x2="58.1166" y2="141.263" gradientUnits="userSpaceOnUse">
<stop stop-color="#F264B9"/>
<stop offset="1" stop-color="#D73696"/>
</linearGradient>
<linearGradient id="paint7_linear_236_797" x1="102" y1="94.5121" x2="86.4276" y2="141.664" gradientUnits="userSpaceOnUse">
<stop stop-color="#F264B9"/>
<stop offset="1" stop-color="#D73696"/>
</linearGradient>
<linearGradient id="paint8_linear_236_797" x1="116.328" y1="73.6353" x2="130.266" y2="56.5797" gradientUnits="userSpaceOnUse">
<stop stop-color="#F3C03D"/>
<stop offset="1" stop-color="#FFE175"/>
</linearGradient>
<linearGradient id="paint9_linear_236_797" x1="53" y1="156" x2="36.5757" y2="148.336" gradientUnits="userSpaceOnUse">
<stop stop-color="#F264B9"/>
<stop offset="1" stop-color="#D73696"/>
</linearGradient>
<linearGradient id="paint10_linear_236_797" x1="76" y1="165.5" x2="64.4571" y2="162.801" gradientUnits="userSpaceOnUse">
<stop stop-color="#F264B9"/>
<stop offset="1" stop-color="#D73696"/>
</linearGradient>
<linearGradient id="paint11_linear_236_797" x1="-0.500001" y1="157.5" x2="5.4914" y2="145.113" gradientUnits="userSpaceOnUse">
<stop stop-color="#F3C03D"/>
<stop offset="1" stop-color="#FFE175"/>
</linearGradient>
<linearGradient id="paint12_linear_236_797" x1="1.5" y1="166.5" x2="7.02649" y2="154.958" gradientUnits="userSpaceOnUse">
<stop stop-color="#F3C03D"/>
<stop offset="1" stop-color="#FFE175"/>
</linearGradient>
<linearGradient id="paint13_linear_236_797" x1="-0.999999" y1="177" x2="4.28409" y2="163.398" gradientUnits="userSpaceOnUse">
<stop stop-color="#F3C03D"/>
<stop offset="1" stop-color="#FFE175"/>
</linearGradient>
</defs>
</svg>
